<svg id="Layer_1" data-name="Layer 1" xmlns="http://www.w3.org/2000/svg" viewBox="0 0 55 55"><defs><style>.cls-1{fill:none;stroke:#3e315a;stroke-linecap:round;stroke-linejoin:round;stroke-width:3px;}</style></defs><g id="Profile_-_Outlined" data-name="Profile - Outlined"><g id="Profile-5"><circle id="Ellipse_736-2" data-name="Ellipse 736-2" class="cls-1" cx="27.53" cy="16.93" r="10.93"/><path id="Path_33945-2" data-name="Path 33945-2" class="cls-1" d="M10.19,43.08a5.15,5.15,0,0,1,.5-2.22,9.21,9.21,0,0,1,6.45-3.71,38,38,0,0,1,5.32-.74,56.11,56.11,0,0,1,10,0,38.41,38.41,0,0,1,5.36.75c2.45.51,5.4,1.51,6.46,3.71a5.27,5.27,0,0,1,0,4.46c-1,2.2-4,3.21-6.46,3.69a37,37,0,0,1-5.36.78,60.35,60.35,0,0,1-8.18.11,9.64,9.64,0,0,1-1.86-.12A37,37,0,0,1,17.12,49c-2.48-.47-5.41-1.48-6.48-3.68A5.15,5.15,0,0,1,10.19,43.08Z"/></g></g></svg>