<svg xmlns="http://www.w3.org/2000/svg" viewBox="0 0 36.86 46.02"><defs><style>.cls-1{fill:none;stroke:#3e315a;stroke-linecap:round;stroke-linejoin:round;stroke-width:3px;}</style></defs><g id="Layer_2" data-name="Layer 2"><g id="Layer_1-2" data-name="Layer 1"><g id="Profile_-_Outlined" data-name="Profile - Outlined"><g id="Profile-5"><circle id="Ellipse_736-2" data-name="Ellipse 736-2" class="cls-1" cx="18.46" cy="12.19" r="10.69"/><path id="Path_33945-2" data-name="Path 33945-2" class="cls-1" d="M1.5,37.75A5.1,5.1,0,0,1,2,35.58,9,9,0,0,1,8.3,32a36.36,36.36,0,0,1,5.2-.73,55.53,55.53,0,0,1,9.82,0,37.13,37.13,0,0,1,5.24.74c2.39.49,5.28,1.47,6.31,3.62a5.12,5.12,0,0,1,0,4.36c-1,2.15-3.92,3.14-6.31,3.61a35.58,35.58,0,0,1-5.24.76,57.72,57.72,0,0,1-8,.11,9.23,9.23,0,0,1-1.82-.12,35.31,35.31,0,0,1-5.22-.76C5.85,43.09,3,42.1,1.94,40A5.34,5.34,0,0,1,1.5,37.75Z"/></g></g></g></g></svg>