<svg xmlns="http://www.w3.org/2000/svg" viewBox="0 0 52 52"><defs><style>.cls-1{fill:#de3127;stroke:#3e315a;stroke-miterlimit:10;stroke-width:3px;}.cls-2{fill:#fcda43;}.cls-3{fill:none;}</style></defs><g id="Layer_2" data-name="Layer 2"><g id="Layer_1-2" data-name="Layer 1"><g id="Layer_2-2" data-name="Layer 2"><g id="Layer_1-3" data-name="Layer 1"><g id="Layer_2-7" data-name="Layer 2-7"><g id="Layer_1-7" data-name="Layer 1-7"><rect id="Rectangle_1023" data-name="Rectangle 1023" class="cls-1" x="4.39" y="4.39" width="43.23" height="43.23" rx="7.65"/><g id="Iconly_Two-tone_Star-2" data-name="Iconly Two-tone Star-2"><g id="Star-6-2"><path id="Star-7-2" class="cls-2" d="M21.74,19.41l1.73,3.43a.65.65,0,0,0,.46.33l3.81.54a.67.67,0,0,1,.39.22.57.57,0,0,1,0,.77L25.3,27.41a.57.57,0,0,0-.18.5l.68,3.79a.62.62,0,0,1-.48.68,1,1,0,0,1-.35,0l-3.4-1.76a.56.56,0,0,0-.56,0l-3.5,1.76a.52.52,0,0,1-.72-.18.53.53,0,0,1-.05-.46l.77-3.88a.51.51,0,0,0-.19-.49l-2.9-2.68a.59.59,0,0,1,0-.82h0a.7.7,0,0,1,.34-.18l3.82-.54a.6.6,0,0,0,.44-.33l1.7-3.45a.58.58,0,0,1,.34-.29.51.51,0,0,1,.45,0,.63.63,0,0,1,.27.29Z"/></g></g><g id="Iconly_Two-tone_Star-3" data-name="Iconly Two-tone Star-3"><g id="Star-6-3"><path id="Star-7-3" class="cls-2" d="M31.85,15.12l.47,1,1.09.15a.16.16,0,0,1,0,.22l-.81.75a.19.19,0,0,0,0,.15l.18,1.09a.16.16,0,0,1-.12.19h0l-1-.5h-.15l-1,.5a.13.13,0,0,1-.18,0h0l.23-1.15a.2.2,0,0,0,0-.15l-.71-.68a.2.2,0,0,1,0-.23h0L31,16.29a.29.29,0,0,0,.13,0l.47-1h.12Z"/></g></g><g id="Iconly_Two-tone_Star-4" data-name="Iconly Two-tone Star-4"><g id="Star-6-4"><path id="Star-7-4" class="cls-2" d="M36,20.6l.47,1h.13l1.09.15h.12a.16.16,0,0,1,0,.22l-.76.75a.19.19,0,0,0,0,.15l.2,1.09a.18.18,0,0,1-.16.18h0l-1-.5h-.17l-1,.5a.2.2,0,0,1-.23,0h0l.2-1.09a.22.22,0,0,0,0-.16l-.76-.75a.13.13,0,0,1,0-.2h0l1.09-.15.46-1h.14Z"/></g></g><g id="Iconly_Two-tone_Star-5" data-name="Iconly Two-tone Star-5"><g id="Star-6-5"><path id="Star-7-5" class="cls-2" d="M31.68,36.93h-.12l-.45-1-1.18-.31h0a.18.18,0,0,1,0-.22l.77-.76v-.13l-.18-1.09a.15.15,0,0,1,.2,0l1,.5a.17.17,0,0,0,.14,0l1-.5h.12a.14.14,0,0,1,0,.17l-.17,1.09v.13l.77.76a.15.15,0,0,1,0,.18h0l-1.09.15H32.3l-.47,1Z"/></g></g><g id="Iconly_Two-tone_Star-6" data-name="Iconly Two-tone Star-6"><g id="Star-6-6"><path id="Star-7-6" class="cls-2" d="M35.79,31.46l-.48-1a.24.24,0,0,0-.12,0l-1.09-.15h0a.14.14,0,0,1,0-.2h0l.76-.76-.19-1.09a.17.17,0,0,1,.23,0l.94.49H36l.95-.49h0a.12.12,0,0,1,.14.09h0v.07l-.18,1.09h0l.77.76a.17.17,0,0,1,0,.19h0l-1.09.15h-.13l-.47,1Z"/></g></g></g></g></g></g><rect class="cls-3" width="52" height="52"/></g></g></svg>