<svg xmlns="http://www.w3.org/2000/svg" viewBox="0 0 42.63 42.63"><defs><style>.cls-1{fill:#de3127;stroke:#3e315a;stroke-miterlimit:10;stroke-width:3px;}.cls-2{fill:#fcda43;}</style></defs><g id="Layer_2" data-name="Layer 2"><g id="Layer_1-2" data-name="Layer 1"><g id="Layer_2-13" data-name="Layer 2-13"><g id="Layer_1-13" data-name="Layer 1-13"><g id="Layer_2-7-2" data-name="Layer 2-7-2"><g id="Layer_1-7-2" data-name="Layer 1-7-2"><rect id="Rectangle_1023" data-name="Rectangle 1023" class="cls-1" x="1.5" y="1.5" width="39.63" height="39.63" rx="7.01"/><g id="Iconly_Two-tone_Star-2-2" data-name="Iconly Two-tone Star-2-2"><g id="Star-6-2-2"><path id="Star-7-2-2" class="cls-2" d="M17.41,15.27,19,18.42a.57.57,0,0,0,.42.3l3.49.5a.57.57,0,0,1,.36.2.52.52,0,0,1,0,.7l-2.6,2.49a.5.5,0,0,0-.16.46l.62,3.47a.55.55,0,0,1-.44.62.58.58,0,0,1-.32,0l-3.12-1.61a.52.52,0,0,0-.51,0l-3.21,1.61a.48.48,0,0,1-.7-.58l.7-3.56a.48.48,0,0,0-.17-.45L10.7,20.11a.54.54,0,0,1,0-.75h0A.58.58,0,0,1,11,19.2l3.5-.5a.56.56,0,0,0,.41-.3l1.55-3.16a.53.53,0,0,1,.32-.27.49.49,0,0,1,.41,0,.59.59,0,0,1,.25.27Z"/></g></g><g id="Iconly_Two-tone_Star-3-2" data-name="Iconly Two-tone Star-3-2"><g id="Star-6-3-2"><path id="Star-7-3-2" class="cls-2" d="M26.68,11.34l.43.89,1,.14a.15.15,0,0,1,0,.2l-.74.69a.15.15,0,0,0,0,.13l.16,1a.15.15,0,0,1-.11.18h0l-.88-.46H26.4l-.89.46a.12.12,0,0,1-.16,0h0l.21-1.06a.15.15,0,0,0,0-.13l-.65-.63a.17.17,0,0,1,0-.21h0l1-.13H26l.43-.89h.11Z"/></g></g><g id="Iconly_Two-tone_Star-4" data-name="Iconly Two-tone Star-4"><g id="Star-6-4"><path id="Star-7-4" class="cls-2" d="M30.45,16.36l.43.89a.24.24,0,0,0,.12,0l1,.14h.11a.15.15,0,0,1,0,.2l-.7.69a.17.17,0,0,0,0,.14l.18,1a.16.16,0,0,1-.14.16h0l-.88-.46h-.16l-.87.46a.17.17,0,0,1-.21,0h0l.18-1a.17.17,0,0,0,0-.14l-.7-.69a.13.13,0,0,1,0-.18h0l1-.14.43-.89h.12Z"/></g></g><g id="Iconly_Two-tone_Star-5" data-name="Iconly Two-tone Star-5"><g id="Star-6-5"><path id="Star-7-5" class="cls-2" d="M26.52,31.34h-.11L26,30.46l-1.08-.29h0a.15.15,0,0,1,0-.2l.7-.7v-.12l-.16-1a.15.15,0,0,1,.18,0l.89.46a.15.15,0,0,0,.13,0l.88-.46h.11a.12.12,0,0,1,0,.16l-.16,1v.12l.71.7a.12.12,0,0,1,0,.16h0l-1,.14h-.11l-.43.88Z"/></g></g><g id="Iconly_Two-tone_Star-6" data-name="Iconly Two-tone Star-6"><g id="Star-6-6"><path id="Star-7-6" class="cls-2" d="M30.29,26.32l-.44-.88a.21.21,0,0,0-.11,0l-1-.14h0a.13.13,0,0,1,0-.18h0l.7-.7-.18-1a.17.17,0,0,1,.21,0l.87.45h.16l.87-.45h0a.11.11,0,0,1,.13.09h0v.06l-.16,1h0l.7.7a.14.14,0,0,1,0,.17h0l-1,.14h-.12l-.43.88Z"/></g></g></g></g></g></g></g></g></svg>