<svg id="Layer_1" data-name="Layer 1" xmlns="http://www.w3.org/2000/svg" xmlns:xlink="http://www.w3.org/1999/xlink" viewBox="0 0 55 55"><defs><style>.cls-1,.cls-4{fill:none;}.cls-2{clip-path:url(#clip-path);}.cls-3{fill:#3e315a;}.cls-4{stroke:#3e315a;stroke-linecap:round;stroke-linejoin:round;stroke-width:3px;}</style><clipPath id="clip-path"><rect class="cls-1" x="9.25" y="-1.87" width="47.71" height="47.04" transform="translate(-5.61 29.75) rotate(-45)"/></clipPath></defs><g class="cls-2"><g id="Group_1167" data-name="Group 1167"><g id="Path_37" data-name="Path 37"><path class="cls-1" d="M36.83,48,49.35,9.64A3.27,3.27,0,0,0,47.51,5.4a3.31,3.31,0,0,0-2.4,0L6.72,17.92c-3.4,1.11-4.08,5.73-1,7l16,6.49a3.06,3.06,0,0,1,1.71,1.71l6.5,16C31.1,52.12,35.72,51.44,36.83,48Z"/><path class="cls-3" d="M32.61,48.06a.64.64,0,0,0,.46,0,1.39,1.39,0,0,0,1-.94L46.58,8.74c.08-.25.08-.46,0-.55s-.3-.1-.55,0L7.62,20.69a1.43,1.43,0,0,0-.94,1,.68.68,0,0,0,0,.46s0,0,.09.05l16,6.5a5.9,5.9,0,0,1,3.3,3.3l6.51,16a.24.24,0,0,0,0,.09m-2.06,2.06a3.19,3.19,0,0,1-.69-1.06l-6.5-16a3.13,3.13,0,0,0-.68-1,3,3,0,0,0-1-.68l-16-6.49a3.15,3.15,0,0,1-1.05-.69c-1.76-1.76-.85-5.32,2.08-6.28L45.11,5.4a3.37,3.37,0,0,1,3.51.73,3.37,3.37,0,0,1,.73,3.51L36.83,48C35.87,51,32.31,51.88,30.55,50.12Z"/></g><path id="Path_38" data-name="Path 38" class="cls-4" d="M32.16,22.59l-7.57,7.58"/></g></g></svg>