<svg xmlns="http://www.w3.org/2000/svg" xmlns:xlink="http://www.w3.org/1999/xlink" viewBox="0 0 47.23 47.23"><defs><style>.cls-1,.cls-4{fill:none;}.cls-2{clip-path:url(#clip-path);}.cls-3{fill:#3e315a;}.cls-4{stroke:#3e315a;stroke-linecap:round;stroke-linejoin:round;stroke-width:3px;}</style><clipPath id="clip-path" transform="translate(-4.26 -17.54)"><rect class="cls-1" x="9.94" y="10.28" width="49.16" height="48.47" transform="translate(-14.3 34.52) rotate(-45)"/></clipPath></defs><g id="Layer_2" data-name="Layer 2"><g id="Layer_1-2" data-name="Layer 1"><g class="cls-2"><g id="Group_1167" data-name="Group 1167"><g id="Path_37" data-name="Path 37"><path class="cls-1" d="M38.35,61.71l12.9-39.56a3.36,3.36,0,0,0-1.89-4.37,3.4,3.4,0,0,0-2.47,0L7.33,30.68c-3.51,1.15-4.21,5.9-1.06,7.18l16.45,6.69a3.15,3.15,0,0,1,1.75,1.76l6.7,16.46C32.45,65.92,37.21,65.22,38.35,61.71Z" transform="translate(-4.26 -17.54)"/><path class="cls-3" d="M34,61.73a.7.7,0,0,0,.47,0,1.45,1.45,0,0,0,1-1L48.4,21.21a.56.56,0,0,0,0-.56c-.09-.1-.3-.1-.56,0L8.26,33.53a1.45,1.45,0,0,0-1,1,.67.67,0,0,0,0,.48l.09,0,16.44,6.69a6.22,6.22,0,0,1,2.06,1.36,6,6,0,0,1,1.35,2L34,61.64c0,.07,0,.09.06.09m-2.13,2.12a3.33,3.33,0,0,1-.71-1.08l-6.7-16.46a3.19,3.19,0,0,0-.69-1.06,3.32,3.32,0,0,0-1.06-.7L6.27,37.86a3.32,3.32,0,0,1-1.09-.71c-1.81-1.81-.87-5.48,2.15-6.47l39.56-12.9a3.36,3.36,0,0,1,4.36,4.37L38.35,61.71C37.37,64.73,33.7,65.67,31.88,63.85Z" transform="translate(-4.26 -17.54)"/></g><path id="Path_38" data-name="Path 38" class="cls-4" d="M33.55,35.49,25.74,43.3" transform="translate(-4.26 -17.54)"/></g></g></g></g></svg>