<svg xmlns="http://www.w3.org/2000/svg" viewBox="0 0 51.51 51.46"><defs><style>.cls-1{fill:none;stroke:#3e315a;stroke-linecap:round;stroke-linejoin:round;stroke-width:3px;}</style></defs><g id="Layer_2" data-name="Layer 2"><g id="Layer_1-2" data-name="Layer 1"><g id="Layer_2-3" data-name="Layer 2-3"><g id="Layer_1-3" data-name="Layer 1-3"><path id="Path_1190" data-name="Path 1190" class="cls-1" d="M18.33,5.2a9.33,9.33,0,0,1,14.86,0"/><path id="Path_1191" data-name="Path 1191" class="cls-1" d="M33.19,5.2a9.22,9.22,0,0,1,10.29,8.19"/><path id="Path_1192" data-name="Path 1192" class="cls-1" d="M8,13.39A9.66,9.66,0,0,1,10,8.46,9.33,9.33,0,0,1,18.25,5.2"/><path id="Path_1193" data-name="Path 1193" class="cls-1" d="M43.56,13.39a9.38,9.38,0,0,1,5.15,5.8,9.36,9.36,0,0,1,0,5.09"/><path id="Path_1194" data-name="Path 1194" class="cls-1" d="M2.67,24.55a9.44,9.44,0,0,1,0-5.47A9.24,9.24,0,0,1,8,13.39"/><path id="Path_1195" data-name="Path 1195" class="cls-1" d="M48.71,25.27a9.3,9.3,0,0,1-2.36,12.15L25.77,48,5.14,37.42A9.26,9.26,0,0,1,2.81,25.27"/><path id="Path_1196" data-name="Path 1196" class="cls-1" d="M25.88,48.28,15.1,49.9A2.74,2.74,0,0,1,12,47.6a3.15,3.15,0,0,1,0-.44v-6"/><path id="Path_1197" data-name="Path 1197" class="cls-1" d="M25.66,48.31l10.79,1.62a2.73,2.73,0,0,0,3.11-2.3,3.25,3.25,0,0,0,0-.44v-6"/></g></g></g></g></svg>