<svg xmlns="http://www.w3.org/2000/svg" viewBox="0 0 52 52"><defs><style>.cls-1,.cls-2{fill:none;}.cls-1{stroke:#3e315a;stroke-linecap:round;stroke-linejoin:round;stroke-width:3px;}</style></defs><g id="Layer_2" data-name="Layer 2"><g id="Layer_1-2" data-name="Layer 1"><g id="Layer_1-3" data-name="Layer 1-3"><path id="Path_1190" data-name="Path 1190" class="cls-1" d="M19.35,7.62A8.34,8.34,0,0,1,31,6a7.87,7.87,0,0,1,1.63,1.63"/><path id="Path_1191" data-name="Path 1191" class="cls-1" d="M32.65,7.62A8.33,8.33,0,0,1,40,10.54,8.45,8.45,0,0,1,41.87,15"/><path id="Path_1192" data-name="Path 1192" class="cls-1" d="M10.09,15a8.64,8.64,0,0,1,1.83-4.41,8.36,8.36,0,0,1,7.36-2.92"/><path id="Path_1193" data-name="Path 1193" class="cls-1" d="M41.94,15a8.44,8.44,0,0,1,4.61,5.19,8.22,8.22,0,0,1,0,4.56"/><path id="Path_1194" data-name="Path 1194" class="cls-1" d="M5.33,25a8.52,8.52,0,0,1,0-4.9A8.29,8.29,0,0,1,10.09,15"/><path id="Path_1195" data-name="Path 1195" class="cls-1" d="M46.55,25.59a8.34,8.34,0,0,1-2.11,10.88L26,45.9,7.54,36.47a8.65,8.65,0,0,1-2.82-3.9,8.43,8.43,0,0,1,.74-7"/><path id="Path_1196" data-name="Path 1196" class="cls-1" d="M26.11,46.19l-9.65,1.45a2.45,2.45,0,0,1-2.79-2.06,2.56,2.56,0,0,1,0-.39V39.8"/><path id="Path_1197" data-name="Path 1197" class="cls-1" d="M25.92,46.22l9.65,1.44a2.44,2.44,0,0,0,2.79-2,2.6,2.6,0,0,0,0-.4V39.82"/></g><rect class="cls-2" width="52" height="52"/></g></g></svg>