<svg xmlns="http://www.w3.org/2000/svg" xmlns:xlink="http://www.w3.org/1999/xlink" viewBox="0 0 52 52"><defs><style>.cls-1,.cls-3{fill:none;}.cls-2{clip-path:url(#clip-path);}.cls-3,.cls-4{stroke:#3e315a;stroke-width:3px;}.cls-3{stroke-miterlimit:10;}.cls-4{fill:#fff;}</style><clipPath id="clip-path"><rect class="cls-1" x="4.05" y="4.85" width="43.89" height="42.31"/></clipPath></defs><g id="Layer_2" data-name="Layer 2"><g id="Layer_1-2" data-name="Layer 1"><g id="Group_1174" data-name="Group 1174"><g class="cls-2"><g id="Group_1158" data-name="Group 1158"><path id="Path_27" data-name="Path 27" class="cls-3" d="M27.19,44.87v0s0,0,0,0c.48,0,.95.06,1.42.06l.4,0a11.91,11.91,0,0,0,1.34-.11,9.19,9.19,0,0,0,1.56-.32,11.89,11.89,0,0,0,1.54-.47A15.11,15.11,0,0,0,39,40.28,28.18,28.18,0,0,0,46.19,21.7C46,19.24,45.84,16,43.6,13.38c-2.52-2.94-6.07-3.24-8.3-3.43a23.24,23.24,0,0,0-17.2,7.81,16.53,16.53,0,0,0-3.5,5.94,13.37,13.37,0,0,0-.44,1.65,12.21,12.21,0,0,0-.3,1.69,13.75,13.75,0,0,0-.1,1.45c0,.14,0,.28,0,.43,0,.51,0,1,.06,1.53,0,0,0,0,0,0a20.29,20.29,0,0,0,.38,2.46h0A15.17,15.17,0,0,0,15,35.3a11.75,11.75,0,0,0,.5,1.15,15.09,15.09,0,0,0,2.6,3.82,14.65,14.65,0,0,0,3.57,2.84c.35.18.7.37,1.06.54a14,14,0,0,0,2.19.81h0Z"/><path id="Path_28" data-name="Path 28" class="cls-4" d="M30,41.54v0s0,0,0,0c.35-.34.71-.68,1-1a2.69,2.69,0,0,1,.27-.32c.31-.36.6-.72.87-1.1a13.08,13.08,0,0,0,.9-1.42,12.62,12.62,0,0,0,.77-1.51,17.25,17.25,0,0,0,1.42-6.87,27.85,27.85,0,0,0-7-18.66C26.54,9,24.27,6.88,21,6.74c-3.71-.14-6.41,2.35-8.11,3.91a27.2,27.2,0,0,0-7,18.67,17.4,17.4,0,0,0,1.41,6.86A14.52,14.52,0,0,0,8,37.7a11.52,11.52,0,0,0,.89,1.41c.27.38.57.74.88,1.11a4,4,0,0,0,.27.31c.34.36.69.7,1,1,0,0,0,0,0,0A18.71,18.71,0,0,0,13,43h0a12.62,12.62,0,0,0,2.09,1.1,8.1,8.1,0,0,0,1.1.43,13.35,13.35,0,0,0,4.34.72,13.59,13.59,0,0,0,4.38-.72c.38-.14.75-.27,1.1-.43A12.62,12.62,0,0,0,28.1,43h0L30,41.54"/><path id="Path_29" data-name="Path 29" class="cls-3" d="M30,41.54v0s0,0,0,0c.35-.34.71-.68,1-1a2.69,2.69,0,0,1,.27-.32c.31-.36.6-.72.87-1.1a13.08,13.08,0,0,0,.9-1.42,12.62,12.62,0,0,0,.77-1.51,17.25,17.25,0,0,0,1.42-6.87,27.85,27.85,0,0,0-7-18.66C26.54,9,24.27,6.88,21,6.74c-3.71-.14-6.41,2.35-8.11,3.91a27.2,27.2,0,0,0-7,18.67,17.4,17.4,0,0,0,1.41,6.86A14.52,14.52,0,0,0,8,37.7a11.52,11.52,0,0,0,.89,1.41c.27.38.57.74.88,1.11a4,4,0,0,0,.27.31c.34.36.69.7,1,1,0,0,0,0,0,0A18.71,18.71,0,0,0,13,43h0a12.62,12.62,0,0,0,2.09,1.1,8.1,8.1,0,0,0,1.1.43,13.35,13.35,0,0,0,4.34.72,13.59,13.59,0,0,0,4.38-.72c.38-.14.75-.27,1.1-.43A12.62,12.62,0,0,0,28.1,43h0Z"/><path id="Path_30" data-name="Path 30" class="cls-3" d="M27.35,30a7.09,7.09,0,0,1-6.8,7.35A7.09,7.09,0,0,1,13.75,30a7.08,7.08,0,0,1,6.8-7.34A7.08,7.08,0,0,1,27.35,30Z"/></g></g></g><rect class="cls-1" width="52" height="52"/></g></g></svg>