<svg xmlns="http://www.w3.org/2000/svg" xmlns:xlink="http://www.w3.org/1999/xlink" viewBox="0 0 45.74 43.77"><defs><style>.cls-1,.cls-3{fill:none;}.cls-2{clip-path:url(#clip-path);}.cls-3,.cls-4{stroke:#3e315a;stroke-width:3px;}.cls-3{stroke-miterlimit:10;}.cls-4{fill:#fff;}</style><clipPath id="clip-path" transform="translate(-0.35 -0.5)"><rect class="cls-1" width="46.46" height="44.78"/></clipPath></defs><g id="Layer_2" data-name="Layer 2"><g id="Layer_1-2" data-name="Layer 1"><g id="Group_1174" data-name="Group 1174"><g class="cls-2"><g id="Group_1158" data-name="Group 1158"><path id="Path_27" data-name="Path 27" class="cls-3" d="M24.49,42.37h0s0,0,0,0c.5,0,1,.07,1.5.07a3,3,0,0,1,.42,0,11.18,11.18,0,0,0,1.42-.12A10.63,10.63,0,0,0,29.49,42a11.65,11.65,0,0,0,1.62-.5,15.7,15.7,0,0,0,5.82-4A29.79,29.79,0,0,0,44.6,17.83c-.16-2.6-.37-6-2.74-8.8-2.67-3.1-6.43-3.43-8.78-3.63a24.65,24.65,0,0,0-18.22,8.27,17,17,0,0,0-4.17,8,15.58,15.58,0,0,0-.31,1.79c-.06.5-.09,1-.11,1.53a3.49,3.49,0,0,0,0,.46c0,.54,0,1.08.06,1.62,0,0,0,0,0,0a22.68,22.68,0,0,0,.41,2.6l0,0a14.84,14.84,0,0,0,.8,2.5,10.16,10.16,0,0,0,.52,1.22,16.4,16.4,0,0,0,2.75,4,15.2,15.2,0,0,0,3.78,3c.37.2.75.4,1.12.58a13.82,13.82,0,0,0,2.33.85v0Z" transform="translate(-0.35 -0.5)"/><path id="Path_28" data-name="Path 28" class="cls-4" d="M27.46,38.84v0s0,0,0,0c.37-.36.75-.72,1.1-1.1a3.07,3.07,0,0,1,.29-.34,12.78,12.78,0,0,0,.92-1.17,11.53,11.53,0,0,0,.95-1.5,13.39,13.39,0,0,0,.82-1.6,18.29,18.29,0,0,0,1.5-7.26A29.48,29.48,0,0,0,25.61,6.14c-1.82-1.71-4.22-4-7.71-4.13C14,1.85,11.11,4.49,9.32,6.14A28.73,28.73,0,0,0,1.86,25.9a18.38,18.38,0,0,0,1.5,7.27,16,16,0,0,0,.81,1.6,13.06,13.06,0,0,0,1,1.5c.29.4.6.78.93,1.16a3.07,3.07,0,0,0,.29.34c.35.38.72.74,1.1,1.1,0,0,0,0,0,0a18.35,18.35,0,0,0,2,1.52h0a13.35,13.35,0,0,0,2.21,1.17,9.74,9.74,0,0,0,1.17.45,13.73,13.73,0,0,0,4.59.76A14,14,0,0,0,22.07,42c.4-.14.8-.28,1.17-.45a13.35,13.35,0,0,0,2.21-1.17h0l2-1.55" transform="translate(-0.35 -0.5)"/><path id="Path_29" data-name="Path 29" class="cls-3" d="M27.46,38.84v0s0,0,0,0c.37-.36.75-.72,1.1-1.1a3.07,3.07,0,0,1,.29-.34,12.78,12.78,0,0,0,.92-1.17,11.53,11.53,0,0,0,.95-1.5,13.39,13.39,0,0,0,.82-1.6,18.29,18.29,0,0,0,1.5-7.26A29.48,29.48,0,0,0,25.61,6.14c-1.82-1.71-4.22-4-7.71-4.13C14,1.85,11.11,4.49,9.32,6.14A28.73,28.73,0,0,0,1.86,25.9a18.38,18.38,0,0,0,1.5,7.27,16,16,0,0,0,.81,1.6,13.06,13.06,0,0,0,1,1.5c.29.4.6.78.93,1.16a3.07,3.07,0,0,0,.29.34c.35.38.72.74,1.1,1.1,0,0,0,0,0,0a18.35,18.35,0,0,0,2,1.52h0a13.35,13.35,0,0,0,2.21,1.17,9.74,9.74,0,0,0,1.17.45,13.73,13.73,0,0,0,4.59.76A14,14,0,0,0,22.07,42c.4-.14.8-.28,1.17-.45a13.35,13.35,0,0,0,2.21-1.17h0Z" transform="translate(-0.35 -0.5)"/><path id="Path_30" data-name="Path 30" class="cls-3" d="M24.66,26.61c0,4.3-3.22,7.78-7.2,7.78s-7.2-3.48-7.2-7.78a7.5,7.5,0,0,1,7.2-7.77A7.5,7.5,0,0,1,24.66,26.61Z" transform="translate(-0.35 -0.5)"/></g></g></g></g></g></svg>