<svg xmlns="http://www.w3.org/2000/svg" xmlns:xlink="http://www.w3.org/1999/xlink" viewBox="0 0 46.13 28.1"><defs><style>.cls-1,.cls-2{fill:none;}.cls-2{stroke:#3e315a;stroke-linecap:round;stroke-linejoin:round;stroke-width:3px;}.cls-3{clip-path:url(#clip-path);}</style><clipPath id="clip-path"><rect class="cls-1" x="11.39" y="0.66" width="7.52" height="26.87"/></clipPath></defs><g id="Layer_2" data-name="Layer 2"><g id="Layer_1-2" data-name="Layer 1"><g id="Group_1175" data-name="Group 1175"><path id="Path_1-2" data-name="Path 1-2" class="cls-2" d="M18.23,1.5C8.19,1.5,1.5,14.05,1.5,14.05S8.19,26.6,18.23,26.6,35,14.05,35,14.05,28.28,1.5,18.23,1.5Z"/><circle id="Oval-7-2" class="cls-2" cx="9.58" cy="14.05" r="0.78"/><path id="Polygon_1" data-name="Polygon 1" class="cls-2" d="M35.45,15.24a1,1,0,0,1-.37-1.36,1,1,0,0,1,.37-.38l7.68-4.39a1,1,0,0,1,1.37.37,1.09,1.09,0,0,1,.13.5v8.78a1,1,0,0,1-1,1,1,1,0,0,1-.5-.13Z"/><g id="Group_1165" data-name="Group 1165"><g class="cls-3"><g id="Group_1164" data-name="Group 1164"><path id="Path_36" data-name="Path 36" class="cls-2" d="M13.27,2.54A20.24,20.24,0,0,1,17,14.28a20.22,20.22,0,0,1-3.47,11.37"/></g></g></g></g></g></g></svg>