<svg xmlns="http://www.w3.org/2000/svg" xmlns:xlink="http://www.w3.org/1999/xlink" viewBox="0 0 52 52"><defs><style>.cls-1,.cls-2{fill:none;}.cls-2{stroke:#3e315a;stroke-linecap:round;stroke-linejoin:round;stroke-width:3px;}.cls-3{clip-path:url(#clip-path);}</style><clipPath id="clip-path"><rect class="cls-1" x="14.33" y="12.57" width="7.52" height="26.87"/></clipPath></defs><g id="Layer_2" data-name="Layer 2"><g id="Layer_1-2" data-name="Layer 1"><g id="Group_1175" data-name="Group 1175"><path id="Path_1-2" data-name="Path 1-2" class="cls-2" d="M21.17,13.4C11.13,13.4,4.44,26,4.44,26S11.13,38.5,21.17,38.5,37.9,26,37.9,26,31.21,13.4,21.17,13.4Z"/><circle id="Oval-7-2" class="cls-2" cx="12.52" cy="25.95" r="0.78"/><path id="Polygon_1" data-name="Polygon 1" class="cls-2" d="M38.38,27.14A1,1,0,0,1,38,25.78a1,1,0,0,1,.37-.37L46.06,21a1,1,0,0,1,1.37.36.93.93,0,0,1,.13.51v8.78a1,1,0,0,1-1,1,1,1,0,0,1-.51-.14Z"/><g id="Group_1165" data-name="Group 1165"><g class="cls-3"><g id="Group_1164" data-name="Group 1164"><path id="Path_36" data-name="Path 36" class="cls-2" d="M16.2,14.45a20.15,20.15,0,0,1,3.73,11.73,20.24,20.24,0,0,1-3.48,11.38"/></g></g></g></g><rect class="cls-1" width="52" height="52"/></g></g></svg>