<svg xmlns="http://www.w3.org/2000/svg" viewBox="0 0 52 52"><defs><style>.cls-1,.cls-2,.cls-3{fill:none;}.cls-1,.cls-2{stroke:#3e315a;stroke-linecap:round;stroke-width:3px;}.cls-1{stroke-linejoin:round;}</style></defs><g id="Layer_2" data-name="Layer 2"><g id="Layer_1-2" data-name="Layer 1"><g id="Layer_2-10" data-name="Layer 2-10"><g id="Layer_1-10" data-name="Layer 1-10"><line id="Line_6-2" data-name="Line 6-2" class="cls-1" x1="47.59" y1="3.97" x2="44.63" y2="6.93"/><path id="Path_19-2" data-name="Path 19-2" class="cls-2" d="M34.61,17.07,5.19,46.52"/><path id="Rectangle_853-2" data-name="Rectangle 853-2" class="cls-1" d="M34.21,24.26l4.43,4.44h0L34.2,33.17a4.64,4.64,0,0,1-6.54,0l0,0L26.47,32a4.62,4.62,0,0,1,0-6.54l0,0,1.17-1.17a4.62,4.62,0,0,1,6.54,0l0,0Z"/><path id="Rectangle_854-2" data-name="Rectangle 854-2" class="cls-1" d="M38.06,7.11h6.17v6.32a4.62,4.62,0,0,1-4.62,4.63H37.94a4.66,4.66,0,0,1-4.66-4.63V11.77A4.7,4.7,0,0,1,38,7.11Z"/><line id="Line_8-2" data-name="Line 8-2" class="cls-1" x1="38.65" y1="28.7" x2="41.39" y2="25.98"/><path id="Rectangle_855-2" data-name="Rectangle 855-2" class="cls-1" d="M21.72,36.71l4.47,4.48h0l-4.47,4.44a4.63,4.63,0,0,1-6.54,0l0,0L14,44.45a4.68,4.68,0,0,1,0-6.56l1.17-1.18a4.69,4.69,0,0,1,6.57,0Z"/><line id="Line_9-2" data-name="Line 9-2" class="cls-1" x1="26.19" y1="41.19" x2="28.9" y2="38.47"/><path id="Rectangle_856-2" data-name="Rectangle 856-2" class="cls-1" d="M19.41,24.9l-1.14-1.14a4.65,4.65,0,0,1-.11-6.58l.11-.11,4.44-4.35h0l4.44,4.35a4.66,4.66,0,0,1,0,6.59h0L26,24.81a4.66,4.66,0,0,1-6.59.11h0Z"/><line id="Line_10-2" data-name="Line 10-2" class="cls-1" x1="22.71" y1="12.73" x2="25.42" y2="10.01"/><path id="Rectangle_857-2" data-name="Rectangle 857-2" class="cls-1" d="M7,37.39,5.78,36.22a4.62,4.62,0,0,1,0-6.54l0,0,4.47-4.44h0l4.44,4.44a4.63,4.63,0,0,1,0,6.54l0,0-1.17,1.17a4.62,4.62,0,0,1-6.54,0Z"/><line id="Line_11-2" data-name="Line 11-2" class="cls-1" x1="10.25" y1="25.21" x2="12.96" y2="22.47"/><line id="Line_204" data-name="Line 204" class="cls-1" x1="47.22" y1="48.03" x2="39.48" y2="41.19"/><line id="Line_205" data-name="Line 205" class="cls-1" x1="47.22" y1="41.19" x2="39.48" y2="48.03"/></g></g><rect class="cls-3" width="52" height="52"/></g></g></svg>