<svg xmlns="http://www.w3.org/2000/svg" viewBox="0 0 46.18 47.07"><defs><style>.cls-1,.cls-2{fill:none;stroke:#3e315a;stroke-linecap:round;stroke-width:3px;}.cls-1{stroke-linejoin:round;}</style></defs><g id="Layer_2" data-name="Layer 2"><g id="Layer_1-2" data-name="Layer 1"><g id="Layer_2-10" data-name="Layer 2-10"><g id="Layer_1-10" data-name="Layer 1-10"><line id="Line_6-2" data-name="Line 6-2" class="cls-1" x1="44.68" y1="1.5" x2="41.72" y2="4.46"/><path id="Path_19-2" data-name="Path 19-2" class="cls-2" d="M31.7,14.6,2.28,44.05"/><path id="Rectangle_853-2" data-name="Rectangle 853-2" class="cls-1" d="M31.3,21.79l4.43,4.44h0L31.29,30.7a4.63,4.63,0,0,1-6.54,0l0,0-1.17-1.17a4.62,4.62,0,0,1,0-6.54l0,0,1.17-1.17a4.63,4.63,0,0,1,6.54,0l0,0Z"/><path id="Rectangle_854-2" data-name="Rectangle 854-2" class="cls-1" d="M35.15,4.65h6.17V11a4.62,4.62,0,0,1-4.62,4.62H35A4.66,4.66,0,0,1,30.37,11V9.3a4.68,4.68,0,0,1,4.72-4.65Z"/><line id="Line_8-2" data-name="Line 8-2" class="cls-1" x1="35.74" y1="26.23" x2="38.48" y2="23.52"/><path id="Rectangle_855-2" data-name="Rectangle 855-2" class="cls-1" d="M18.81,34.25l4.47,4.47h0l-4.47,4.44a4.64,4.64,0,0,1-6.54,0l0,0L11.07,42a4.69,4.69,0,0,1,0-6.57l1.17-1.17a4.69,4.69,0,0,1,6.57,0Z"/><line id="Line_9-2" data-name="Line 9-2" class="cls-1" x1="23.28" y1="38.72" x2="26" y2="36.01"/><path id="Rectangle_856-2" data-name="Rectangle 856-2" class="cls-1" d="M16.5,22.44,15.36,21.3a4.66,4.66,0,0,1-.11-6.59l.11-.11,4.44-4.34h0l4.44,4.34a4.66,4.66,0,0,1,0,6.59h0L23.1,22.35a4.67,4.67,0,0,1-6.59.1Z"/><line id="Line_10-2" data-name="Line 10-2" class="cls-1" x1="19.8" y1="10.26" x2="22.51" y2="7.54"/><path id="Rectangle_857-2" data-name="Rectangle 857-2" class="cls-1" d="M4,34.93,2.87,33.75a4.62,4.62,0,0,1,0-6.54l0,0,4.47-4.44h0l4.44,4.44a4.63,4.63,0,0,1,0,6.54l0,0-1.17,1.18a4.63,4.63,0,0,1-6.54,0Z"/><line id="Line_11-2" data-name="Line 11-2" class="cls-1" x1="7.34" y1="22.74" x2="10.05" y2="20"/><line id="Line_204" data-name="Line 204" class="cls-1" x1="44.31" y1="45.57" x2="36.57" y2="38.72"/><line id="Line_205" data-name="Line 205" class="cls-1" x1="44.31" y1="38.72" x2="36.57" y2="45.57"/></g></g></g></g></svg>