<svg xmlns="http://www.w3.org/2000/svg" viewBox="0 0 52 52"><defs><style>.cls-1,.cls-2,.cls-3{fill:none;}.cls-1,.cls-2{stroke:#3e315a;stroke-linecap:round;stroke-linejoin:round;}.cls-1{stroke-width:3px;}.cls-2{stroke-width:3px;}</style></defs><g id="Layer_2" data-name="Layer 2"><g id="Layer_1-2" data-name="Layer 1"><g id="Iconly_Light_Heart" data-name="Iconly Light Heart"><g id="Heart"><path id="Path_33961" data-name="Path 33961" class="cls-1" d="M25.46,45.74A79.07,79.07,0,0,1,11.83,35.28,26.76,26.76,0,0,1,5.34,25.1c-2.43-7.46.41-16,8.37-18.52A13.68,13.68,0,0,1,26,8.62h0a13.71,13.71,0,0,1,12.28-2c8,2.53,10.82,11.06,8.39,18.52a26.76,26.76,0,0,1-6.49,10.18A79.07,79.07,0,0,1,26.54,45.74l-.53.32Z"/><path id="Path_33964" data-name="Path 33964" class="cls-2" d="M32.71,28.71a12.59,12.59,0,0,1-13.8.08"/></g></g><rect class="cls-3" width="52" height="52"/></g></g></svg>