<svg xmlns="http://www.w3.org/2000/svg" viewBox="0 0 46.15 46.14"><defs><style>.cls-1,.cls-2{fill:none;stroke:#3e315a;stroke-width:3px;}.cls-1{stroke-miterlimit:10;}.cls-2{stroke-linecap:round;stroke-linejoin:round;}</style></defs><g id="Layer_2" data-name="Layer 2"><g id="Layer_1-2" data-name="Layer 1"><g id="Layer_2-8" data-name="Layer 2-8"><g id="Layer_1-8" data-name="Layer 1-8"><path id="Path_1269" data-name="Path 1269" class="cls-1" d="M31.08,43.1h0a21.5,21.5,0,0,1-16.5-.2h0A21.63,21.63,0,0,1,3,31.08H3a21.63,21.63,0,0,1,.19-16.5h0A21.76,21.76,0,0,1,15.05,3h0a21.63,21.63,0,0,1,16.5.19h0A21.55,21.55,0,0,1,43.1,15.05h0a21.5,21.5,0,0,1-.2,16.5h0A21.43,21.43,0,0,1,31.08,43.1Z"/><path id="Path_1270" data-name="Path 1270" class="cls-2" d="M18.27,18.6v8H12.63"/><path id="Path_1271" data-name="Path 1271" class="cls-2" d="M28.85,18.6v8h5.64"/><path id="Path_1272" data-name="Path 1272" class="cls-2" d="M23.22,18.6l5.64,5L24.4,26.57"/></g></g></g></g></svg>