<svg xmlns="http://www.w3.org/2000/svg" viewBox="0 0 52 52"><defs><style>.cls-1,.cls-2,.cls-3{fill:none;}.cls-1,.cls-2{stroke:#3e315a;stroke-width:3px;}.cls-1{stroke-miterlimit:10;}.cls-2{stroke-linecap:round;stroke-linejoin:round;}</style></defs><g id="Layer_2" data-name="Layer 2"><g id="Layer_1-2" data-name="Layer 1"><g id="Layer_2-8" data-name="Layer 2-8"><g id="Layer_1-8" data-name="Layer 1-8"><path id="Path_1269" data-name="Path 1269" class="cls-1" d="M34,46h0a21.54,21.54,0,0,1-16.5-.19h0A21.63,21.63,0,0,1,6,34H6a21.63,21.63,0,0,1,.19-16.5h0A21.73,21.73,0,0,1,18,6h0a21.63,21.63,0,0,1,16.5.19h0A21.5,21.5,0,0,1,46,18h0a21.45,21.45,0,0,1-.19,16.5h0A21.44,21.44,0,0,1,34,46Z"/><path id="Path_1270" data-name="Path 1270" class="cls-2" d="M21.2,21.53v8H15.56"/><path id="Path_1271" data-name="Path 1271" class="cls-2" d="M31.78,21.53v8h5.64"/><path id="Path_1272" data-name="Path 1272" class="cls-2" d="M26.14,21.53l5.64,5L27.33,29.5"/></g></g><rect class="cls-3" width="52" height="52"/><rect class="cls-3" width="52" height="52"/></g></g></svg>