<svg xmlns="http://www.w3.org/2000/svg" viewBox="0 0 52 52"><defs><style>.cls-1,.cls-3{fill:none;}.cls-1,.cls-2{stroke:#3e315a;stroke-linecap:round;stroke-linejoin:round;stroke-width:3px;}.cls-2{fill:#3e315a;}</style></defs><g id="Layer_2" data-name="Layer 2"><g id="Layer_1-2" data-name="Layer 1"><g id="Layer_2-21" data-name="Layer 2-21"><g id="Layer_1-21" data-name="Layer 1-21"><path id="Path_1252" data-name="Path 1252" class="cls-1" d="M4.47,20.66h0a31.9,31.9,0,0,0,20,24.92,30.82,30.82,0,0,0,11.75,2.1,31,31,0,0,0,9.22-1.34,2.8,2.8,0,0,0-.25-5.48,29,29,0,0,1-6.85-2.28A26.84,26.84,0,0,1,23.3,17.5"/><path id="Path_1253" data-name="Path 1253" class="cls-1" d="M4.57,21.07a9.53,9.53,0,1,1,18.72-3.58h0"/><path id="Path_1254" data-name="Path 1254" class="cls-1" d="M13.69,19.65A6.49,6.49,0,0,1,9.9,23a6.42,6.42,0,0,1-4.85-.2"/><path id="Path_1255" data-name="Path 1255" class="cls-1" d="M13.69,19.65a6.53,6.53,0,0,0,5,.38,6.47,6.47,0,0,0,3.67-3.16"/><line id="Line_197" data-name="Line 197" class="cls-1" x1="9.3" y1="4.24" x2="10.79" y2="8.56"/><path id="Path_1256" data-name="Path 1256" class="cls-2" d="M7.58,30.14A31.83,31.83,0,0,0,16.3,40.9a30.39,30.39,0,0,0,8.31,4.76,30.82,30.82,0,0,0,11.75,2.1,31.35,31.35,0,0,0,9.12-1.42,2.8,2.8,0,0,0-.26-5.49,28.65,28.65,0,0,1-6.84-2.28,24.28,24.28,0,0,1-3.79-2.2,26,26,0,0,1-3.41-2.87,32.29,32.29,0,0,1-6.27-9.43Z"/></g></g><rect class="cls-3" width="52" height="52"/></g></g></svg>