<svg xmlns="http://www.w3.org/2000/svg" viewBox="0 0 46.2 46.52"><defs><style>.cls-1{fill:none;}.cls-1,.cls-2{stroke:#3e315a;stroke-linecap:round;stroke-linejoin:round;stroke-width:3px;}.cls-2{fill:#3e315a;}</style></defs><g id="Layer_2" data-name="Layer 2"><g id="Layer_1-2" data-name="Layer 1"><g id="Layer_2-21" data-name="Layer 2-21"><g id="Layer_1-21" data-name="Layer 1-21"><path id="Path_1252" data-name="Path 1252" class="cls-1" d="M1.57,17.93h0a31.88,31.88,0,0,0,20,24.91,30.82,30.82,0,0,0,11.75,2.1,31,31,0,0,0,9.22-1.34,2.8,2.8,0,0,0-.25-5.48,29,29,0,0,1-6.85-2.28A26.84,26.84,0,0,1,20.4,14.77"/><path id="Path_1253" data-name="Path 1253" class="cls-1" d="M1.67,18.33a9.53,9.53,0,0,1,18.72-3.58v0"/><path id="Path_1254" data-name="Path 1254" class="cls-1" d="M10.79,16.91A6.49,6.49,0,0,1,7,20.22,6.42,6.42,0,0,1,2.15,20"/><path id="Path_1255" data-name="Path 1255" class="cls-1" d="M10.79,16.91a6.44,6.44,0,0,0,8.67-2.77"/><line id="Line_197" data-name="Line 197" class="cls-1" x1="6.4" y1="1.5" x2="7.89" y2="5.82"/><path id="Path_1256" data-name="Path 1256" class="cls-2" d="M4.68,27.4A32,32,0,0,0,13.4,38.17a30.62,30.62,0,0,0,8.31,4.75A30.82,30.82,0,0,0,33.46,45a31.35,31.35,0,0,0,9.12-1.42,2.81,2.81,0,0,0-.25-5.49,29,29,0,0,1-6.85-2.27,26,26,0,0,1-3.79-2.2,26.91,26.91,0,0,1-3.41-2.88A32.38,32.38,0,0,1,22,21.34Z"/></g></g></g></g></svg>