<svg xmlns="http://www.w3.org/2000/svg" viewBox="0 0 46.18 46.98"><defs><style>.cls-1{fill:none;}.cls-1,.cls-2{stroke:#3e315a;stroke-linecap:round;stroke-linejoin:round;stroke-width:3px;}.cls-2{fill:#fff;}</style></defs><g id="Layer_2" data-name="Layer 2"><g id="Layer_1-2" data-name="Layer 1"><g id="Layer_2-9" data-name="Layer 2-9"><g id="Layer_1-9" data-name="Layer 1-9"><path id="Path_1273" data-name="Path 1273" class="cls-1" d="M40.51,10.65v4.18a17.44,17.44,0,0,1-34.86,0V10.65"/><line id="Line_203" data-name="Line 203" class="cls-1" x1="16.14" y1="45.48" x2="30.04" y2="45.48"/><path id="Path_1274" data-name="Path 1274" class="cls-1" d="M23.09,10.65V45"/><path id="Path_1275" data-name="Path 1275" class="cls-2" d="M26.64,5.55h0a4.53,4.53,0,0,1,.52,2.1,4.2,4.2,0,0,1-4.3,4.11h-.13A4.27,4.27,0,0,1,19,7a4.32,4.32,0,0,1,.5-1.52h0A19,19,0,0,1,22.29,2,1.23,1.23,0,0,1,24,1.9l.07.08a24.15,24.15,0,0,1,2.55,3.57Z"/><path id="Path_1276" data-name="Path 1276" class="cls-2" d="M4.63,1.9a1.24,1.24,0,0,1,1.76-.07l.06.07A20.73,20.73,0,0,1,9.22,5.39h0a4.24,4.24,0,0,1-1.29,5.85,4.31,4.31,0,0,1-2,.65,4.2,4.2,0,0,1-4.39-4,.91.91,0,0,1,0-.17A4,4,0,0,1,2,5.61H2A22.69,22.69,0,0,1,4.63,1.9Z"/><path id="Path_1277" data-name="Path 1277" class="cls-2" d="M39.51,1.9a1.22,1.22,0,0,1,1.72-.08l.08.08a18.65,18.65,0,0,1,2.77,3.49h0a4.26,4.26,0,0,1-3.29,6.42,4.21,4.21,0,0,1-4.4-4,4.09,4.09,0,0,1,.5-2.19h0A24.16,24.16,0,0,1,39.52,1.9Z"/></g></g></g></g></svg>