<svg xmlns="http://www.w3.org/2000/svg" viewBox="0 0 52 52"><defs><style>.cls-1,.cls-3{fill:none;}.cls-1,.cls-2{stroke:#3e315a;stroke-linecap:round;stroke-linejoin:round;stroke-width:3px;}.cls-2{fill:#fff;}</style></defs><g id="Layer_2" data-name="Layer 2"><g id="Layer_1-2" data-name="Layer 1"><g id="Layer_2-9" data-name="Layer 2-9"><g id="Layer_1-9" data-name="Layer 1-9"><path id="Path_1273" data-name="Path 1273" class="cls-1" d="M43.35,13.21v4.17a17.37,17.37,0,0,1-34.72,0V13.21"/><line id="Line_203" data-name="Line 203" class="cls-1" x1="19.08" y1="47.9" x2="32.93" y2="47.9"/><path id="Path_1274" data-name="Path 1274" class="cls-1" d="M26,13.21V47.37"/><path id="Path_1275" data-name="Path 1275" class="cls-2" d="M29.53,8.14h0a4.6,4.6,0,0,1,.53,2.09,4.2,4.2,0,0,1-4.29,4.09h-.12a4.24,4.24,0,0,1-3.2-6.25h0a18.53,18.53,0,0,1,2.76-3.48,1.21,1.21,0,0,1,1.71-.08.6.6,0,0,1,.08.08,24.75,24.75,0,0,1,2.54,3.56Z"/><path id="Path_1276" data-name="Path 1276" class="cls-2" d="M7.61,4.5a1.26,1.26,0,0,1,1.76-.07l.06.07A20.93,20.93,0,0,1,12.19,8h0A4.22,4.22,0,0,1,10.9,13.8a4.13,4.13,0,0,1-2,.65,4.18,4.18,0,0,1-4.37-4,1,1,0,0,1,0-.17A3.92,3.92,0,0,1,5,8.2H5A22.08,22.08,0,0,1,7.61,4.5Z"/><path id="Path_1277" data-name="Path 1277" class="cls-2" d="M42.36,4.5a1.21,1.21,0,0,1,1.71-.08l.08.08A18.88,18.88,0,0,1,46.91,8h0a4.25,4.25,0,0,1-3.29,6.4,4.19,4.19,0,0,1-4.38-4,4.24,4.24,0,0,1,.5-2.18h0a24.51,24.51,0,0,1,2.62-3.7Z"/></g></g><rect class="cls-3" width="52" height="52"/></g></g></svg>