<svg xmlns="http://www.w3.org/2000/svg" viewBox="0 0 52 52"><defs><style>.cls-1,.cls-3{fill:none;}.cls-1,.cls-2{stroke:#3e315a;stroke-linecap:round;stroke-linejoin:round;stroke-width:3px;}.cls-2{fill:#3e315a;}</style></defs><g id="Layer_2" data-name="Layer 2"><g id="Layer_1-2" data-name="Layer 1"><g id="Layer_2-24" data-name="Layer 2-24"><g id="Layer_1-24" data-name="Layer 1-24"><path id="Path_1242" data-name="Path 1242" class="cls-1" d="M4.47,20.69h0a31.87,31.87,0,0,0,20,24.91,30.63,30.63,0,0,0,11.75,2.1,31,31,0,0,0,9.22-1.33,2.8,2.8,0,0,0-.25-5.49,29,29,0,0,1-6.85-2.27A26.84,26.84,0,0,1,23.3,17.53"/><path id="Path_1243" data-name="Path 1243" class="cls-1" d="M4.57,21.09a9.53,9.53,0,0,1,18.72-3.58v0"/><path id="Path_1244" data-name="Path 1244" class="cls-1" d="M13.69,19.68A6.56,6.56,0,0,1,9.9,23a6.51,6.51,0,0,1-4.85-.2"/><path id="Path_1245" data-name="Path 1245" class="cls-1" d="M13.69,19.68a6.58,6.58,0,0,0,5,.38,6.47,6.47,0,0,0,3.67-3.16"/><line id="Line_195" data-name="Line 195" class="cls-1" x1="9.3" y1="4.26" x2="10.79" y2="8.59"/><path id="Path_1246" data-name="Path 1246" class="cls-2" d="M24.51,45.63a30.82,30.82,0,0,0,11.75,2.1,30.38,30.38,0,0,0,9.07-1.39,2.8,2.8,0,0,0-.25-5.49A29.21,29.21,0,0,1,41.89,40Z"/></g></g><rect class="cls-3" width="52" height="52"/></g></g></svg>