<svg xmlns="http://www.w3.org/2000/svg" viewBox="0 0 46.2 46.47"><defs><style>.cls-1{fill:none;}.cls-1,.cls-2{stroke:#3e315a;stroke-linecap:round;stroke-linejoin:round;stroke-width:3px;}.cls-2{fill:#3e315a;}</style></defs><g id="Layer_2" data-name="Layer 2"><g id="Layer_1-2" data-name="Layer 1"><g id="Layer_2-24" data-name="Layer 2-24"><g id="Layer_1-24" data-name="Layer 1-24"><path id="Path_1242" data-name="Path 1242" class="cls-1" d="M1.57,17.93h0a31.88,31.88,0,0,0,20,24.91,30.82,30.82,0,0,0,11.75,2.1,31,31,0,0,0,9.22-1.34,2.8,2.8,0,0,0-.25-5.48,29,29,0,0,1-6.85-2.28A26.84,26.84,0,0,1,20.4,14.77"/><path id="Path_1243" data-name="Path 1243" class="cls-1" d="M1.67,18.33a9.53,9.53,0,0,1,18.72-3.58v0"/><path id="Path_1244" data-name="Path 1244" class="cls-1" d="M10.79,16.91A6.49,6.49,0,0,1,7,20.22,6.42,6.42,0,0,1,2.15,20"/><path id="Path_1245" data-name="Path 1245" class="cls-1" d="M10.79,16.91a6.44,6.44,0,0,0,8.67-2.77"/><line id="Line_195" data-name="Line 195" class="cls-1" x1="6.4" y1="1.5" x2="7.89" y2="5.82"/><path id="Path_1246" data-name="Path 1246" class="cls-2" d="M21.61,42.86A30.83,30.83,0,0,0,33.36,45a30.72,30.72,0,0,0,9.07-1.4,2.8,2.8,0,0,0-.25-5.48A29.21,29.21,0,0,1,39,37.28Z"/></g></g></g></g></svg>