<svg xmlns="http://www.w3.org/2000/svg" viewBox="0 0 52 52"><defs><style>.cls-1,.cls-3{fill:none;}.cls-1,.cls-2{stroke:#3e315a;stroke-linecap:round;stroke-linejoin:round;stroke-width:3px;}.cls-2{fill:#3e315a;}</style></defs><g id="Layer_2" data-name="Layer 2"><g id="Layer_1-2" data-name="Layer 1"><g id="Layer_2-23" data-name="Layer 2-23"><g id="Layer_1-23" data-name="Layer 1-23"><path id="Path_1247" data-name="Path 1247" class="cls-1" d="M4.47,20.68h0a31.88,31.88,0,0,0,20,24.91,30.63,30.63,0,0,0,11.75,2.1,31,31,0,0,0,9.22-1.34,2.8,2.8,0,0,0-.25-5.48,29,29,0,0,1-6.85-2.27A26.84,26.84,0,0,1,23.3,17.52"/><path id="Path_1248" data-name="Path 1248" class="cls-1" d="M4.57,21.08A9.53,9.53,0,1,1,23.29,17.5v0"/><path id="Path_1249" data-name="Path 1249" class="cls-1" d="M13.69,19.67A6.59,6.59,0,0,1,9.9,23a6.47,6.47,0,0,1-4.85-.21"/><path id="Path_1250" data-name="Path 1250" class="cls-1" d="M13.69,19.67a6.58,6.58,0,0,0,5,.38,6.5,6.5,0,0,0,3.67-3.16"/><line id="Line_196" data-name="Line 196" class="cls-1" x1="9.29" y1="4.25" x2="10.79" y2="8.57"/><path id="Path_1251" data-name="Path 1251" class="cls-2" d="M13.41,38.39a34.86,34.86,0,0,0,11.12,7.25,34.92,34.92,0,0,0,5.66,1.65,32.68,32.68,0,0,0,6.09.45,31.18,31.18,0,0,0,9.2-1.39,2.8,2.8,0,0,0-.25-5.48,29,29,0,0,1-6.85-2.28,26.83,26.83,0,0,1-8.06-5.91Z"/></g></g><rect class="cls-3" width="52" height="52"/></g></g></svg>