<svg id="Layer_1" data-name="Layer 1" xmlns="http://www.w3.org/2000/svg" viewBox="0 0 55 55"><defs><style>.cls-1{fill:none;stroke:#3e315a;stroke-linecap:round;stroke-linejoin:round;stroke-width:3px;}</style></defs><g id="Menu_-_Outlined" data-name="Menu - Outlined"><g id="Document-5"><path id="Stroke_1-8" data-name="Stroke 1-8" class="cls-1" d="M36.19,37.85H19"/><path id="Stroke_2-4" data-name="Stroke 2-4" class="cls-1" d="M36.19,27.86H19"/><path id="Stroke_3-8" data-name="Stroke 3-8" class="cls-1" d="M25.53,17.88H19"/><path id="Stroke_4-4" data-name="Stroke 4-4" class="cls-1" d="M36.65,5.67H18.26A10.14,10.14,0,0,0,7.59,15.26h0a11.37,11.37,0,0,0,0,1.43V38.64a10.17,10.17,0,0,0,9.29,11h0a9.39,9.39,0,0,0,1.5,0H36.73a10.21,10.21,0,0,0,10.69-9.71,10.77,10.77,0,0,0,0-1.27V16.69a10.12,10.12,0,0,0-9.16-11A9.38,9.38,0,0,0,36.65,5.67Z"/></g></g></svg>