<svg xmlns="http://www.w3.org/2000/svg" viewBox="0 0 40.39 44.25"><defs><style>.cls-1{fill:none;stroke:#3e315a;stroke-linecap:round;stroke-linejoin:round;stroke-width:3px;}</style></defs><g id="Layer_2" data-name="Layer 2"><g id="Layer_1-2" data-name="Layer 1"><g id="Menu_-_Outlined" data-name="Menu - Outlined"><g id="Document-5"><path id="Stroke_1-8" data-name="Stroke 1-8" class="cls-1" d="M28.34,31.69H12.18"/><path id="Stroke_2-4" data-name="Stroke 2-4" class="cls-1" d="M28.34,22.32H12.18"/><path id="Stroke_3-8" data-name="Stroke 3-8" class="cls-1" d="M18.35,13H12.18"/><path id="Stroke_4-4" data-name="Stroke 4-4" class="cls-1" d="M28.77,1.52H11.53a9.51,9.51,0,0,0-10,9h0c0,.45,0,.89,0,1.34V32.43a9.54,9.54,0,0,0,8.71,10.29h0a8.18,8.18,0,0,0,1.4,0h17.2a9.57,9.57,0,0,0,10-9.1,9.45,9.45,0,0,0,0-1.19V11.85A9.48,9.48,0,0,0,30.26,1.54,9.25,9.25,0,0,0,28.77,1.52Z"/></g></g></g></g></svg>