<svg xmlns="http://www.w3.org/2000/svg" viewBox="0 0 46.17 45.1"><defs><style>.cls-1{fill:none;stroke:#3e315a;stroke-linecap:round;stroke-linejoin:round;stroke-width:3px;}</style></defs><g id="Layer_2" data-name="Layer 2"><g id="Layer_1-2" data-name="Layer 1"><g id="Layer_2-12" data-name="Layer 2-12"><g id="Layer_1-12" data-name="Layer 1-12"><path id="Path_1161" data-name="Path 1161" class="cls-1" d="M12.16,6.44a6.43,6.43,0,0,1,12.5,0"/><path id="Path_1161-2" data-name="Path 1161-2" class="cls-1" d="M24.66,6.54a6.43,6.43,0,0,1,4.75,11.63"/><path id="Path_1161-3" data-name="Path 1161-3" class="cls-1" d="M12,6.52a6.42,6.42,0,0,0-7.33,5.33,6.35,6.35,0,0,0,2.59,6.32"/><path id="Path_1161-4" data-name="Path 1161-4" class="cls-1" d="M7,31.87a7,7,0,0,1,0-13.7"/><path id="Path_1161-5" data-name="Path 1161-5" class="cls-1" d="M29.38,31.87a7,7,0,0,0,0-13.65"/><path id="Path_1261" data-name="Path 1261" class="cls-1" d="M29.38,32.24A6.42,6.42,0,0,1,18.29,37"/><path id="Path_1262" data-name="Path 1262" class="cls-1" d="M7,32.24a6.4,6.4,0,0,0,5.89,6.88h0A6.53,6.53,0,0,0,18.29,37"/><path id="Path_1161-6" data-name="Path 1161-6" class="cls-1" d="M28,6.84a6.42,6.42,0,0,1,11.6,4.56"/><path id="Path_1161-7" data-name="Path 1161-7" class="cls-1" d="M39.62,11.48A6.42,6.42,0,0,1,39.83,24"/><path id="Path_1263" data-name="Path 1263" class="cls-1" d="M27.81,6.86h0"/><path id="Path_1161-8" data-name="Path 1161-8" class="cls-1" d="M34.79,36.83a7,7,0,0,0,5-12.72"/><path id="Path_1264" data-name="Path 1264" class="cls-1" d="M23.38,39.12a6.46,6.46,0,0,0,11.26-2"/><path id="Path_1265" data-name="Path 1265" class="cls-1" d="M18.48,16.19,18.29,43.6"/></g></g></g></g></svg>