<svg xmlns="http://www.w3.org/2000/svg" viewBox="0 0 52 52"><defs><style>.cls-1,.cls-2{fill:none;}.cls-1{stroke:#3e315a;stroke-linecap:round;stroke-linejoin:round;stroke-width:3px;}</style></defs><g id="Layer_2" data-name="Layer 2"><g id="Layer_1-2" data-name="Layer 1"><g id="Layer_2-12" data-name="Layer 2-12"><g id="Layer_1-12" data-name="Layer 1-12"><path id="Path_1161" data-name="Path 1161" class="cls-1" d="M15.08,9.89a6.43,6.43,0,0,1,12.5,0"/><path id="Path_1161-2" data-name="Path 1161-2" class="cls-1" d="M27.58,10a6.43,6.43,0,0,1,4.74,11.63"/><path id="Path_1161-3" data-name="Path 1161-3" class="cls-1" d="M14.89,10a6.48,6.48,0,0,0-4.75,11.65"/><path id="Path_1161-4" data-name="Path 1161-4" class="cls-1" d="M9.93,35.32a7,7,0,0,1,0-13.7"/><path id="Path_1161-5" data-name="Path 1161-5" class="cls-1" d="M32.3,35.32a7,7,0,0,0,0-13.65"/><path id="Path_1261" data-name="Path 1261" class="cls-1" d="M32.3,35.69a6.42,6.42,0,0,1-11.09,4.8"/><path id="Path_1262" data-name="Path 1262" class="cls-1" d="M10,35.69a6.39,6.39,0,0,0,5.88,6.88h0a6.54,6.54,0,0,0,5.33-2.08"/><path id="Path_1161-6" data-name="Path 1161-6" class="cls-1" d="M30.94,10.29a6.42,6.42,0,0,1,11.6,4.55"/><path id="Path_1161-7" data-name="Path 1161-7" class="cls-1" d="M42.54,14.93a6.43,6.43,0,0,1,.21,12.5"/><path id="Path_1263" data-name="Path 1263" class="cls-1" d="M30.73,10.31h0"/><path id="Path_1161-8" data-name="Path 1161-8" class="cls-1" d="M37.71,40.28a7,7,0,0,0,5-12.72"/><path id="Path_1264" data-name="Path 1264" class="cls-1" d="M26.3,42.57a6.45,6.45,0,0,0,11.25-2"/><path id="Path_1265" data-name="Path 1265" class="cls-1" d="M21.4,19.64l-.19,27.41"/></g></g><rect class="cls-2" width="52" height="52"/></g></g></svg>