<svg xmlns="http://www.w3.org/2000/svg" viewBox="0 0 52 52"><defs><style>.cls-1,.cls-3{fill:none;}.cls-1,.cls-2{stroke:#3e315a;stroke-linecap:round;stroke-linejoin:round;stroke-width:3px;}.cls-2{fill:#fff;}</style></defs><g id="Layer_2" data-name="Layer 2"><g id="Layer_1-2" data-name="Layer 1"><g id="Layer_2-4" data-name="Layer 2-4"><g id="Layer_1-4" data-name="Layer 1-4"><path id="Path_1198" data-name="Path 1198" class="cls-1" d="M31.78,33.51a11.78,11.78,0,1,0-7-15.1,11.91,11.91,0,0,0-.65,5.26,13.81,13.81,0,1,0,7.69,9.84Z"/><path id="Path_1199" data-name="Path 1199" class="cls-2" d="M25.18,23.85a11.81,11.81,0,1,0-12.46,0,13.82,13.82,0,1,0,12.46,0Z"/><path id="Path_1200" data-name="Path 1200" class="cls-1" d="M17.05,17.21a4.2,4.2,0,0,1-1.85-.83,4,4,0,0,1,1.85-7"/><path id="Path_1201" data-name="Path 1201" class="cls-1" d="M18.4,43.17A7,7,0,0,1,14,31.62,7.37,7.37,0,0,1,18.4,29"/></g></g><rect class="cls-3" width="52" height="52"/></g></g></svg>