<svg xmlns="http://www.w3.org/2000/svg" viewBox="0 0 46.19 50.99"><defs><style>.cls-1{fill:none;}.cls-1,.cls-2{stroke:#3e315a;stroke-linecap:round;stroke-linejoin:round;stroke-width:3px;}.cls-2{fill:#fff;}</style></defs><g id="Layer_2" data-name="Layer 2"><g id="Layer_1-2" data-name="Layer 1"><g id="Layer_2-4" data-name="Layer 2-4"><g id="Layer_1-4" data-name="Layer 1-4"><path id="Path_1198" data-name="Path 1198" class="cls-1" d="M28.87,33a11.8,11.8,0,1,0-7.68-9.84A13.82,13.82,0,1,0,28.87,33Z"/><path id="Path_1199" data-name="Path 1199" class="cls-2" d="M22.28,23.34a11.83,11.83,0,1,0-12.47,0,13.8,13.8,0,1,0,12.47,0Z"/><path id="Path_1200" data-name="Path 1200" class="cls-1" d="M14.15,16.71a4.26,4.26,0,0,1-1.86-.84,4,4,0,0,1,1.86-7"/><path id="Path_1201" data-name="Path 1201" class="cls-1" d="M15.49,42.66a7.37,7.37,0,0,1-3.32-1.37A7.26,7.26,0,0,1,15.5,28.52"/></g></g></g></g></svg>