<svg xmlns="http://www.w3.org/2000/svg" viewBox="0 0 55 55"><defs><style>.cls-1{fill:#3e315a;stroke:#3e315a;stroke-miterlimit:10;stroke-width:0.9px;}.cls-2{fill:none;}</style></defs><g id="Layer_2" data-name="Layer 2"><g id="Layer_1-2" data-name="Layer 1"><path id="UI_Kit-14" data-name="UI Kit-14" class="cls-1" d="M35.68,44.15c-.61-.1-1.22-.18-1.82-.31a23.29,23.29,0,0,1-6.41-2.63A34.19,34.19,0,0,1,19,34.61a33.73,33.73,0,0,1-7-10.95A13.94,13.94,0,0,1,11,19a5.63,5.63,0,0,1,1.54-4.31c.94-.95,1.83-1.95,2.81-2.81a3.24,3.24,0,0,1,4.59-.12l.18.18c1.59,1.48,3.1,3,4.57,4.62a3.17,3.17,0,0,1,0,4.28c-.79.89-1.64,1.69-2.47,2.54l-.29.25a24.07,24.07,0,0,0,9.53,9.48l1.93-2a4.85,4.85,0,0,1,1.78-1.32,3,3,0,0,1,3.22.53c1.66,1.59,3.28,3.18,4.84,4.86a3.18,3.18,0,0,1,.09,4.23c-1,1.17-2.1,2.28-3.18,3.36a5.09,5.09,0,0,1-2.88,1.28,1,1,0,0,0-.23.07Zm.5-2a3.81,3.81,0,0,0,3-1.17c.74-.79,1.51-1.54,2.26-2.31l.28-.31a1.36,1.36,0,0,0,0-1.92h0c-.61-.66-1.26-1.28-1.88-1.92-.8-.79-1.64-1.64-2.47-2.45a1.34,1.34,0,0,0-1.88-.21l-.07.06-.06,0-.36.34L32.6,34.69a1.49,1.49,0,0,1-1.89.31,13.29,13.29,0,0,1-1.43-.79,24.83,24.83,0,0,1-5.51-4.6,19.74,19.74,0,0,1-3.65-5.18,1.7,1.7,0,0,1,.44-2.34c.8-.8,1.69-1.63,2.49-2.48a1.29,1.29,0,0,0,.1-1.8l-.07-.07-.3-.32-3.88-3.9a1.49,1.49,0,0,0-2.08-.31,1.77,1.77,0,0,0-.3.31c-.83.79-1.59,1.59-2.38,2.38a4.39,4.39,0,0,0-.92,1.34,5.69,5.69,0,0,0,0,3.27A20.33,20.33,0,0,0,15,25.28,32.65,32.65,0,0,0,20,32.61,31.84,31.84,0,0,0,32.71,41.4a11.89,11.89,0,0,0,3.48.74Z"/><rect class="cls-2" width="55" height="55"/></g></g></svg>