<svg xmlns="http://www.w3.org/2000/svg" viewBox="0 0 42.16 42.42"><defs><style>.cls-1{fill:#3e315a;stroke:#3e315a;stroke-miterlimit:10;stroke-width:0.5px;}</style></defs><g id="Layer_2" data-name="Layer 2"><g id="Layer_1-2" data-name="Layer 1"><path id="UI_Kit-14" data-name="UI Kit-14" class="cls-1" d="M31.38,42.17c-.77-.13-1.54-.23-2.3-.39A29.72,29.72,0,0,1,21,38.47,42.82,42.82,0,0,1,10.4,30.16,42.47,42.47,0,0,1,1.57,16.38a18,18,0,0,1-1.3-5.89A7.13,7.13,0,0,1,2.21,5.06c1.18-1.2,2.31-2.45,3.54-3.54a4.08,4.08,0,0,1,5.78-.14,2.28,2.28,0,0,1,.22.22c2,1.86,3.91,3.82,5.76,5.82a4,4,0,0,1,0,5.38c-1,1.12-2.07,2.13-3.11,3.2l-.37.32A30.31,30.31,0,0,0,26,28.24l2.42-2.47a6.25,6.25,0,0,1,2.24-1.67,3.76,3.76,0,0,1,4.06.67c2.09,2,4.12,4,6.09,6.12A4,4,0,0,1,41,36.21c-1.25,1.48-2.64,2.87-4,4.23a6.28,6.28,0,0,1-3.62,1.61,1.4,1.4,0,0,0-.29.09ZM32,39.65a4.75,4.75,0,0,0,3.75-1.47c.94-1,1.9-1.94,2.85-2.91l.35-.39a1.73,1.73,0,0,0,0-2.42h0c-.77-.83-1.58-1.61-2.37-2.41-1-1-2.06-2.07-3.1-3.09a1.69,1.69,0,0,0-2.38-.26l-.08.07a.23.23,0,0,0-.07.07c-.16.13-.3.28-.45.42l-3,3a1.88,1.88,0,0,1-2.38.39,15.83,15.83,0,0,1-1.8-1,31.08,31.08,0,0,1-6.94-5.79,24.8,24.8,0,0,1-4.59-6.52,2.13,2.13,0,0,1,.56-2.94c1-1,2.12-2.05,3.13-3.12A1.61,1.61,0,0,0,15.6,9l-.08-.09c-.13-.14-.26-.27-.38-.41L10.26,3.61a1.87,1.87,0,0,0-2.62-.38,2,2,0,0,0-.38.38c-1,1-2,2-3,3A5.75,5.75,0,0,0,3.11,8.3a7.19,7.19,0,0,0,0,4.11,25.06,25.06,0,0,0,2.18,6,40.85,40.85,0,0,0,6.35,9.23,39.93,39.93,0,0,0,16,11.06,14.9,14.9,0,0,0,4.38.93Z"/></g></g></svg>