<svg xmlns="http://www.w3.org/2000/svg" viewBox="0 0 52 52"><defs><style>.cls-1{fill:#fec042;stroke:#fec042;stroke-linecap:round;stroke-linejoin:round;stroke-width:3px;}.cls-2{fill:none;}</style></defs><g id="Layer_2" data-name="Layer 2"><g id="Layer_1-2" data-name="Layer 1"><g id="Iconly_Two-tone_Star-3" data-name="Iconly Two-tone Star-3"><g id="Star-6-3"><path id="Star-7-3" class="cls-1" d="M27.74,5.08l5.65,11.38a2,2,0,0,0,1.45,1.07l12.65,1.83a1.93,1.93,0,0,1,1.28.75,1.89,1.89,0,0,1-.2,2.52l-9.16,8.9a1.85,1.85,0,0,0-.55,1.7l2.2,12.53a1.92,1.92,0,0,1-1.58,2.18,2.11,2.11,0,0,1-1.26-.19L26.94,41.84a1.88,1.88,0,0,0-1.81,0L13.78,47.79a2,2,0,0,1-2.61-.8,2.09,2.09,0,0,1-.2-1.23l2.21-12.53a1.91,1.91,0,0,0-.55-1.7L3.4,22.63a1.93,1.93,0,0,1,0-2.72h0a2.3,2.3,0,0,1,1.1-.55l12.64-1.83a2,2,0,0,0,1.46-1.07L24.25,5.08a1.94,1.94,0,0,1,2.6-.88A2,2,0,0,1,27.74,5.08Z"/></g></g><rect class="cls-2" width="52" height="52"/></g></g></svg>