<svg xmlns="http://www.w3.org/2000/svg" viewBox="0 0 47.75 45.51"><defs><style>.cls-1{fill:#fec042;stroke:#fec042;stroke-linecap:round;stroke-linejoin:round;stroke-width:3px;}</style></defs><g id="Layer_2" data-name="Layer 2"><g id="Layer_1-2" data-name="Layer 1"><g id="Iconly_Two-tone_Star-3" data-name="Iconly Two-tone Star-3"><g id="Star-6-3"><path id="Star-7-3" class="cls-1" d="M25.56,2.54l5.45,11a1.88,1.88,0,0,0,1.41,1l12.21,1.77a1.87,1.87,0,0,1,1.25.72,1.83,1.83,0,0,1-.2,2.44l-8.85,8.59a1.77,1.77,0,0,0-.53,1.64l2.13,12.12A1.85,1.85,0,0,1,36.9,44a2,2,0,0,1-1.22-.19L24.79,38.05a1.87,1.87,0,0,0-1.75,0l-11,5.75A1.91,1.91,0,0,1,9.55,43a1.94,1.94,0,0,1-.19-1.18l2.13-12.12A1.83,1.83,0,0,0,11,28.09L2,19.5a1.87,1.87,0,0,1,0-2.63H2a2.17,2.17,0,0,1,1.07-.53l12.21-1.77a1.93,1.93,0,0,0,1.41-1l5.46-11a1.8,1.8,0,0,1,1.08-.94,1.82,1.82,0,0,1,1.43.1A1.94,1.94,0,0,1,25.56,2.54Z"/></g></g></g></g></svg>