<svg xmlns="http://www.w3.org/2000/svg" viewBox="0 0 49.94 48.73"><defs><style>.cls-1{fill:none;stroke:#3e315a;stroke-linecap:round;stroke-linejoin:round;stroke-width:3px;}</style></defs><g id="Layer_2" data-name="Layer 2"><g id="Layer_1-2" data-name="Layer 1"><g id="Layer_2-27" data-name="Layer 2-27"><g id="Layer_1-27" data-name="Layer 1-27"><path id="Path_1161-9" data-name="Path 1161-9" class="cls-1" d="M13.5,10.51a11.71,11.71,0,0,1,22.79,0"/><path id="Path_1162" data-name="Path 1162" class="cls-1" d="M36.59,10.5c5.33-.06,10,3.16,11.46,7.85A10.31,10.31,0,0,1,42.6,30.44V41.75a5.77,5.77,0,0,1-6,5.47H13.35a5.76,5.76,0,0,1-6-5.47V30.36A10.31,10.31,0,0,1,1.89,18.27C3.3,13.58,8,10.36,13.35,10.43"/><line id="Line_183" data-name="Line 183" class="cls-1" x1="19.74" y1="33.05" x2="19.74" y2="39.99"/><line id="Line_184" data-name="Line 184" class="cls-1" x1="30.07" y1="33.05" x2="30.07" y2="39.99"/></g></g></g></g></svg>