<svg xmlns="http://www.w3.org/2000/svg" viewBox="0 0 46.26 48.3"><defs><style>.cls-1{fill:none;stroke:#3e315a;stroke-linecap:round;stroke-linejoin:round;stroke-width:3px;}</style></defs><g id="Layer_2" data-name="Layer 2"><g id="Layer_1-2" data-name="Layer 1"><g id="Group_1161" data-name="Group 1161"><g id="Group_1162" data-name="Group 1162"><path id="Path_31" data-name="Path 31" class="cls-1" d="M31,31.06a11,11,0,0,1-7.53,3.46,10.79,10.79,0,0,1-2.93,7.7A10.93,10.93,0,1,1,4.37,27.46l.17-.19A10.84,10.84,0,0,1,12,23.85a11,11,0,0,1,3-7.74,10.76,10.76,0,0,1,7.5-3.42A10.93,10.93,0,1,1,33.88,23.35,10.79,10.79,0,0,1,31,31.06Z"/><path id="Path_32" data-name="Path 32" class="cls-1" d="M31,9.74a3.92,3.92,0,1,1,.18,5.54A3.92,3.92,0,0,1,31,9.74Z"/><path id="Path_33" data-name="Path 33" class="cls-1" d="M20.44,20.76a3.92,3.92,0,1,1,.19,5.54A3.92,3.92,0,0,1,20.44,20.76Z"/><path id="Path_34" data-name="Path 34" class="cls-1" d="M9.94,31.79a3.92,3.92,0,1,1,.18,5.54A3.92,3.92,0,0,1,9.94,31.79Z"/><path id="Path_35" data-name="Path 35" class="cls-1" d="M38,40.21a3.91,3.91,0,1,1,.18,5.53A3.91,3.91,0,0,1,38,40.21Z"/></g></g></g></g></svg>