<svg xmlns="http://www.w3.org/2000/svg" viewBox="0 0 52 52"><defs><style>.cls-1,.cls-2{fill:none;}.cls-1{stroke:#3e315a;stroke-linecap:round;stroke-linejoin:round;stroke-width:3px;}</style></defs><g id="Layer_2" data-name="Layer 2"><g id="Layer_1-2" data-name="Layer 1"><g id="Group_1161" data-name="Group 1161"><g id="Group_1162" data-name="Group 1162"><path id="Path_31" data-name="Path 31" class="cls-1" d="M33.82,32.9a10.91,10.91,0,0,1-7.53,3.46,10.75,10.75,0,0,1-2.93,7.7A10.93,10.93,0,1,1,7.23,29.31l.18-.19A10.84,10.84,0,0,1,14.9,25.7a11,11,0,0,1,3-7.74,10.76,10.76,0,0,1,7.5-3.42A10.93,10.93,0,1,1,36.74,25.2,10.72,10.72,0,0,1,33.82,32.9Z"/><path id="Path_32" data-name="Path 32" class="cls-1" d="M33.82,11.59A3.92,3.92,0,1,1,34,17.12,3.92,3.92,0,0,1,33.82,11.59Z"/><path id="Path_33" data-name="Path 33" class="cls-1" d="M23.31,22.61a3.92,3.92,0,1,1,.18,5.54A3.92,3.92,0,0,1,23.31,22.61Z"/><path id="Path_34" data-name="Path 34" class="cls-1" d="M12.81,33.64A3.92,3.92,0,1,1,13,39.18,3.92,3.92,0,0,1,12.81,33.64Z"/><path id="Path_35" data-name="Path 35" class="cls-1" d="M40.86,42.05A3.92,3.92,0,1,1,41,47.59,3.92,3.92,0,0,1,40.86,42.05Z"/></g></g><rect class="cls-2" width="52" height="52"/></g></g></svg>