<svg xmlns="http://www.w3.org/2000/svg" xmlns:xlink="http://www.w3.org/1999/xlink" viewBox="0 0 41.8 45.79"><defs><style>.cls-1,.cls-2,.cls-3,.cls-5{fill:none;}.cls-2,.cls-3,.cls-5{stroke:#3e315a;stroke-linecap:round;}.cls-2,.cls-5{stroke-linejoin:round;}.cls-2,.cls-3{stroke-width:3px;}.cls-4{clip-path:url(#clip-path);}.cls-5{stroke-width:3px;}</style><clipPath id="clip-path" transform="translate(-2.5)"><rect class="cls-1" x="6.37" y="7.9" width="33.7" height="45.88" transform="translate(-8 53.53) rotate(-89.03)"/></clipPath></defs><g id="Layer_2" data-name="Layer 2"><g id="Layer_1-2" data-name="Layer 1"><g id="Group_1173" data-name="Group 1173"><path id="Rectangle_858-2" data-name="Rectangle 858-2" class="cls-2" d="M41.93,19.17H4.86a.79.79,0,0,1-.79-.79h0A9.9,9.9,0,0,1,14,8.48H32.82a9.9,9.9,0,0,1,9.9,9.9h0A.8.8,0,0,1,41.93,19.17Z" transform="translate(-2.5)"/><path id="Path_41" data-name="Path 41" class="cls-3" d="M23,1.5v7" transform="translate(-2.5)"/><g id="Group_1172" data-name="Group 1172"><g class="cls-4"><g id="Group_1171" data-name="Group 1171"><path id="Path_48" data-name="Path 48" class="cls-5" d="M4.2,17.06S.76,38.73,23,44.29" transform="translate(-2.5)"/><path id="Path_49" data-name="Path 49" class="cls-5" d="M42.71,17.71S45.41,39.49,23,44.29" transform="translate(-2.5)"/></g></g></g></g></g></g></svg>