<svg xmlns="http://www.w3.org/2000/svg" viewBox="0 0 52 52"><defs><style>.cls-1{fill:#fff;}.cls-1,.cls-2{stroke:#3e315a;stroke-linecap:round;stroke-linejoin:round;stroke-width:3px;}.cls-2,.cls-3{fill:none;}</style></defs><g id="Layer_2" data-name="Layer 2"><g id="Layer_1-2" data-name="Layer 1"><g id="Layer_2-7" data-name="Layer 2-7"><g id="Layer_1-7" data-name="Layer 1-7"><path id="Path_1268" data-name="Path 1268" class="cls-1" d="M7.1,25.38c.05-.22.12-.44.19-.65a16.38,16.38,0,0,1,4.3-7.49,16.72,16.72,0,0,1,23.65.1l.24.25c8.51,9,3.79,24.16-8,27.52l-.51.13A81.69,81.69,0,0,1,9.55,47.93a4.81,4.81,0,0,1-5.13-4.46c0-.22,0-.43,0-.64A90.24,90.24,0,0,1,7.1,25.38Z"/><line id="Line_200" data-name="Line 200" class="cls-2" x1="35.48" y1="15.87" x2="41.79" y2="9.24"/><line id="Line_201" data-name="Line 201" class="cls-2" x1="47.59" y1="17.67" x2="36.56" y2="16.89"/><line id="Line_202" data-name="Line 202" class="cls-2" x1="34.62" y1="15.04" x2="33.33" y2="4.06"/></g></g><rect class="cls-3" width="52" height="52"/></g></g></svg>