<svg xmlns="http://www.w3.org/2000/svg" viewBox="0 0 46.18 46.88"><defs><style>.cls-1{fill:#fff;}.cls-1,.cls-2{stroke:#3e315a;stroke-linecap:round;stroke-linejoin:round;stroke-width:3px;}.cls-2{fill:none;}</style></defs><g id="Layer_2" data-name="Layer 2"><g id="Layer_1-2" data-name="Layer 1"><g id="Layer_2-7" data-name="Layer 2-7"><g id="Layer_1-7" data-name="Layer 1-7"><path id="Path_1268" data-name="Path 1268" class="cls-1" d="M4.19,22.82c0-.22.12-.44.19-.65a16.43,16.43,0,0,1,4.3-7.49,16.72,16.72,0,0,1,23.65.1l.24.25c8.51,9,3.79,24.16-8,27.52l-.51.13A81.69,81.69,0,0,1,6.64,45.37a4.8,4.8,0,0,1-5.13-4.46c0-.21,0-.43,0-.64A91,91,0,0,1,4.19,22.82Z"/><line id="Line_200" data-name="Line 200" class="cls-2" x1="32.57" y1="13.31" x2="38.88" y2="6.68"/><line id="Line_201" data-name="Line 201" class="cls-2" x1="44.68" y1="15.11" x2="33.65" y2="14.33"/><line id="Line_202" data-name="Line 202" class="cls-2" x1="31.71" y1="12.48" x2="30.42" y2="1.5"/></g></g></g></g></svg>