<svg xmlns="http://www.w3.org/2000/svg" viewBox="0 0 46.18 49.09"><defs><style>.cls-1{fill:#fff;}.cls-1,.cls-2{stroke:#3e315a;stroke-linecap:round;stroke-linejoin:round;stroke-width:3px;}.cls-2{fill:none;}</style></defs><g id="Layer_2" data-name="Layer 2"><g id="Layer_1-2" data-name="Layer 1"><g id="Layer_2-6" data-name="Layer 2-6"><g id="Layer_1-6" data-name="Layer 1-6"><path id="Path_1266" data-name="Path 1266" class="cls-1" d="M23.31,9.43l-.63.2a16.1,16.1,0,0,0-7,4.24,15.91,15.91,0,0,0,.46,22.51l.43.4a16.1,16.1,0,0,0,26-8.36v-.49a78.82,78.82,0,0,0,2.14-16.61,4.58,4.58,0,0,0-4.3-4.84,4.34,4.34,0,0,0-.51,0A84.6,84.6,0,0,0,23.31,9.43Z"/><path id="Path_1267" data-name="Path 1267" class="cls-1" d="M30.49,16.75a3.91,3.91,0,0,1,.31.57A15.66,15.66,0,0,1,16.19,40.56,15.94,15.94,0,0,1,3.82,16.39L4.07,16a77.17,77.17,0,0,1,10.13-13,4.54,4.54,0,0,1,6.42-.16c.12.12.23.23.34.36A83.16,83.16,0,0,1,30.49,16.75Z"/><line id="Line_199" data-name="Line 199" class="cls-2" x1="17.15" y1="25.55" x2="17.15" y2="47.59"/></g></g></g></g></svg>