<svg xmlns="http://www.w3.org/2000/svg" viewBox="0 0 52 52"><defs><style>.cls-1{fill:#fff;}.cls-1,.cls-2{stroke:#3e315a;stroke-linecap:round;stroke-linejoin:round;stroke-width:3px;}.cls-2,.cls-3{fill:none;}</style></defs><g id="Layer_2" data-name="Layer 2"><g id="Layer_1-2" data-name="Layer 1"><g id="Layer_2-6" data-name="Layer 2-6"><g id="Layer_1-6" data-name="Layer 1-6"><path id="Path_1266" data-name="Path 1266" class="cls-1" d="M26.22,10.89l-.63.2a16.1,16.1,0,0,0-7,4.24A15.92,15.92,0,0,0,19,37.84l.43.39a16.09,16.09,0,0,0,22.68-1.89,15.91,15.91,0,0,0,3.32-6.47v-.48a78.27,78.27,0,0,0,2.15-16.61,4.57,4.57,0,0,0-4.3-4.84h-.51A83.88,83.88,0,0,0,26.22,10.89Z"/><path id="Path_1267" data-name="Path 1267" class="cls-1" d="M33.4,18.21a3.91,3.91,0,0,1,.31.57A15.66,15.66,0,0,1,19.1,42,15.94,15.94,0,0,1,6.73,17.84L7,17.42A77.64,77.64,0,0,1,17.11,4.36a4.55,4.55,0,0,1,6.42-.15,3.61,3.61,0,0,1,.33.35A82.7,82.7,0,0,1,33.4,18.21Z"/><line id="Line_199" data-name="Line 199" class="cls-2" x1="20.06" y1="27.01" x2="20.06" y2="49.04"/></g></g><rect class="cls-3" width="52" height="52"/></g></g></svg>