<svg xmlns="http://www.w3.org/2000/svg" viewBox="0 0 52 52"><defs><style>.cls-1{fill:#3e315a;}.cls-1,.cls-2{stroke:#3e315a;stroke-linecap:round;stroke-linejoin:round;stroke-width:3px;}.cls-2,.cls-3{fill:none;}</style></defs><g id="Layer_2" data-name="Layer 2"><g id="Layer_1-2" data-name="Layer 1"><g id="Layer_2-22" data-name="Layer 2-22"><g id="Layer_1-22" data-name="Layer 1-22"><path id="Path_1257" data-name="Path 1257" class="cls-1" d="M4.47,20.7h0a31.9,31.9,0,0,0,20,24.92,30.82,30.82,0,0,0,11.75,2.1,31,31,0,0,0,9.22-1.34,2.8,2.8,0,0,0-.25-5.48,29.49,29.49,0,0,1-6.85-2.28A26.84,26.84,0,0,1,23.3,17.54"/><path id="Path_1258" data-name="Path 1258" class="cls-1" d="M4.57,21.11a9.53,9.53,0,0,1,18.72-3.59v0"/><path id="Path_1259" data-name="Path 1259" class="cls-2" d="M13.69,19.69A6.56,6.56,0,0,1,9.9,23a6.47,6.47,0,0,1-4.85-.2"/><path id="Path_1260" data-name="Path 1260" class="cls-2" d="M13.69,19.69a6.58,6.58,0,0,0,5,.38,6.47,6.47,0,0,0,3.67-3.16"/><line id="Line_198" data-name="Line 198" class="cls-2" x1="9.3" y1="4.28" x2="10.79" y2="8.6"/></g></g><rect class="cls-3" width="52" height="52"/></g></g></svg>