<svg xmlns="http://www.w3.org/2000/svg" viewBox="0 0 42.18 42.18"><defs><style>.cls-1{fill:#de3127;stroke:#3e315a;stroke-miterlimit:10;stroke-width:3px;}.cls-2{fill:#fcda43;}</style></defs><g id="Layer_2" data-name="Layer 2"><g id="Layer_1-2" data-name="Layer 1"><g id="Layer_2-20" data-name="Layer 2-20"><g id="Layer_1-20" data-name="Layer 1-20"><g id="Layer_2-3-2" data-name="Layer 2-3-2"><g id="Layer_1-3-2" data-name="Layer 1-3-2"><rect id="Rectangle_1019" data-name="Rectangle 1019" class="cls-1" x="1.5" y="1.5" width="39.18" height="39.18" rx="7.01"/><g id="Iconly_Two-tone_Star-4-2" data-name="Iconly Two-tone Star-4-2"><g id="Star-6-4-2"><path id="Star-7-4-2" class="cls-2" d="M21.7,13.6l2,4.08a.62.62,0,0,0,.53.36l4.51.68a.73.73,0,0,1,.47.25.65.65,0,0,1,0,.9l-3.36,3.18a.65.65,0,0,0-.17.61l.79,4.52a.71.71,0,0,1-.59.79.69.69,0,0,1-.45,0l-4-2.1a.65.65,0,0,0-.66,0L16.71,29a.67.67,0,0,1-.91-.27h0a.64.64,0,0,1,0-.43l.79-4.51a.81.81,0,0,0-.2-.61L13,19.87a.68.68,0,0,1,0-.95h0a.91.91,0,0,1,.34-.17l4.51-.66a.76.76,0,0,0,.54-.38l2-4.09a.66.66,0,0,1,.45-.25.7.7,0,0,1,.53,0A.76.76,0,0,1,21.7,13.6Z"/></g></g></g></g></g></g></g></g></svg>