<svg xmlns="http://www.w3.org/2000/svg" viewBox="0 0 52 52"><defs><style>.cls-1{fill:#de3127;stroke:#3e315a;stroke-miterlimit:10;stroke-width:3px;}.cls-2{fill:#fcda43;}.cls-3{fill:none;}</style></defs><g id="Layer_2" data-name="Layer 2"><g id="Layer_1-2" data-name="Layer 1"><g id="Layer_2-8-2" data-name="Layer 2-8-2"><g id="Layer_1-8-2" data-name="Layer 1-8-2"><g id="Layer_2-3-2" data-name="Layer 2-3-2"><g id="Layer_1-3-2" data-name="Layer 1-3-2"><rect id="Rectangle_1019" data-name="Rectangle 1019" class="cls-1" x="4.63" y="4.63" width="42.74" height="42.74" rx="7.65"/><g id="Iconly_Two-tone_Star" data-name="Iconly Two-tone Star"><g id="Star-6"><path id="Star-7" class="cls-2" d="M26.67,17.83l2.18,4.45a.65.65,0,0,0,.57.39l4.92.74a.86.86,0,0,1,.52.28.71.71,0,0,1,0,1l-3.67,3.47a.69.69,0,0,0-.18.66l.86,4.93a.78.78,0,0,1-.65.87.82.82,0,0,1-.49,0l-4.36-2.3a.71.71,0,0,0-.72,0l-4.43,2.33a.74.74,0,0,1-1-.29h0a.75.75,0,0,1,0-.47L21.09,29a.82.82,0,0,0-.22-.67l-3.69-3.61a.73.73,0,0,1,0-1h0a.8.8,0,0,1,.37-.18l4.92-.72a.81.81,0,0,0,.58-.42l2.19-4.46a.71.71,0,0,1,.49-.27.73.73,0,0,1,.58,0A.9.9,0,0,1,26.67,17.83Z"/></g></g></g></g></g></g><rect class="cls-3" width="52" height="52"/></g></g></svg>