<svg xmlns="http://www.w3.org/2000/svg" viewBox="0 0 52 52"><defs><style>.cls-1,.cls-2,.cls-3,.cls-4{fill:none;}.cls-1,.cls-2,.cls-3{stroke:#3e315a;stroke-linecap:round;}.cls-1,.cls-3{stroke-linejoin:round;}.cls-1,.cls-2{stroke-width:3px;}.cls-3{stroke-width:3px;}</style></defs><g id="Layer_2" data-name="Layer 2"><g id="Layer_1-2" data-name="Layer 1"><g id="Group_1137" data-name="Group 1137"><line id="Line_6" data-name="Line 6" class="cls-1" x1="47.07" y1="5.01" x2="44.17" y2="7.91"/><path id="Path_19" data-name="Path 19" class="cls-2" d="M34.31,18l-29,28.8"/><path id="Rectangle_853" data-name="Rectangle 853" class="cls-3" d="M34.32,25.31l4,4h0l-4,4a5.13,5.13,0,0,1-7.25,0l-.35-.35a5.13,5.13,0,0,1,0-7.25l.35-.35A5.13,5.13,0,0,1,34.32,25.31Z"/><path id="Rectangle_854" data-name="Rectangle 854" class="cls-1" d="M38.28,8.11h5.61v5.61a5.13,5.13,0,0,1-5.12,5.13h-.49a5.13,5.13,0,0,1-5.13-5.13v-.49A5.13,5.13,0,0,1,38.28,8.11Z"/><line id="Line_8" data-name="Line 8" class="cls-1" x1="38.29" y1="29.28" x2="40.96" y2="26.61"/><path id="Rectangle_855" data-name="Rectangle 855" class="cls-3" d="M22.08,37.55l4,4h0l-4,4a5.12,5.12,0,0,1-7.24,0l-.35-.35a5.12,5.12,0,0,1,0-7.24l.35-.35A5.12,5.12,0,0,1,22.08,37.55Z"/><line id="Line_9" data-name="Line 9" class="cls-1" x1="26.06" y1="41.52" x2="28.73" y2="38.85"/><path id="Rectangle_856" data-name="Rectangle 856" class="cls-3" d="M19,25.17l-.35-.35a5.12,5.12,0,0,1,0-7.24l4-4h0l4,4a5.12,5.12,0,0,1,0,7.24l-.35.35A5.12,5.12,0,0,1,19,25.17Z"/><line id="Line_10" data-name="Line 10" class="cls-1" x1="22.64" y1="13.6" x2="25.31" y2="10.93"/><path id="Rectangle_857" data-name="Rectangle 857" class="cls-3" d="M6.78,37.4l-.35-.34a5.13,5.13,0,0,1,0-7.25l4-4h0l4,4a5.13,5.13,0,0,1,0,7.25L14,37.4A5.11,5.11,0,0,1,6.78,37.4Z"/><line id="Line_11" data-name="Line 11" class="cls-1" x1="10.41" y1="25.84" x2="13.08" y2="23.17"/></g><rect class="cls-4" width="52" height="52"/></g></g></svg>