<svg xmlns="http://www.w3.org/2000/svg" viewBox="0 0 44.11 43.96"><defs><style>.cls-1,.cls-2,.cls-3{fill:none;stroke:#3e315a;stroke-linecap:round;}.cls-1,.cls-3{stroke-linejoin:round;}.cls-1,.cls-2{stroke-width:3px;}.cls-3{stroke-width:3px;}</style></defs><g id="Layer_2" data-name="Layer 2"><g id="Layer_1-2" data-name="Layer 1"><g id="Group_1137" data-name="Group 1137"><line id="Line_6" data-name="Line 6" class="cls-1" x1="42.61" y1="1.5" x2="39.78" y2="4.33"/><path id="Path_19" data-name="Path 19" class="cls-2" d="M30.17,14.14,1.87,42.24"/><path id="Rectangle_853" data-name="Rectangle 853" class="cls-3" d="M30.17,21.31l3.88,3.88h0l-3.88,3.87a5,5,0,0,1-7.07,0l-.34-.34a5,5,0,0,1,0-7.07l.34-.34A5,5,0,0,1,30.17,21.31Z"/><path id="Rectangle_854" data-name="Rectangle 854" class="cls-1" d="M34,4.52h5.48V10a5,5,0,0,1-5,5H34a5,5,0,0,1-5-5V9.52A5,5,0,0,1,34,4.52Z"/><line id="Line_8" data-name="Line 8" class="cls-1" x1="34.05" y1="25.19" x2="36.66" y2="22.58"/><path id="Rectangle_855" data-name="Rectangle 855" class="cls-3" d="M18.23,33.25l3.88,3.88h0L18.23,41a5,5,0,0,1-7.07,0l-.34-.34a5,5,0,0,1,0-7.07l.34-.34A5,5,0,0,1,18.23,33.25Z"/><line id="Line_9" data-name="Line 9" class="cls-1" x1="22.11" y1="37.13" x2="24.72" y2="34.52"/><path id="Rectangle_856" data-name="Rectangle 856" class="cls-3" d="M15.24,21.17l-.34-.34a5,5,0,0,1,0-7.07l3.88-3.87h0l3.87,3.87a5,5,0,0,1,0,7.07l-.34.34A5,5,0,0,1,15.24,21.17Z"/><line id="Line_10" data-name="Line 10" class="cls-1" x1="18.78" y1="9.89" x2="21.39" y2="7.28"/><path id="Rectangle_857" data-name="Rectangle 857" class="cls-3" d="M3.3,33.11,3,32.77A5,5,0,0,1,3,25.7l3.88-3.87h0l3.87,3.87a5,5,0,0,1,0,7.07l-.34.34A5,5,0,0,1,3.3,33.11Z"/><line id="Line_11" data-name="Line 11" class="cls-1" x1="6.84" y1="21.83" x2="9.45" y2="19.22"/></g></g></g></svg>